<svg width="1200" height="526" viewBox="0 0 1200 526" fill="none" xmlns="http://www.w3.org/2000/svg">
<rect width="1200" height="525.111" fill="#F4F4F6"/>
<rect x="590.193" y="101.635" width="44.5765" height="44.5765" fill="url(#paint0_linear_2003_2446)" style="mix-blend-mode:plus-darker"/>
<rect x="590.193" y="101.635" width="44.5765" height="44.5765" stroke="#4450E7" stroke-width="0.445765"/>
<path d="M611.277 114.95H613.674L620.713 132.424H618.442L616.594 127.706H608.357L606.509 132.424H604.238L611.277 114.95ZM615.821 125.734L612.476 117.172L609.131 125.734H615.821Z" fill="white"/>
<mask id="path-3-outside-1_2003_2446" maskUnits="userSpaceOnUse" x="180.933" y="109.551" width="331" height="350" fill="black">
<rect fill="white" x="180.933" y="109.551" width="331" height="350"/>
<path d="M322.481 110.943H370.153L510.189 458.551H465L428.253 364.697H264.381L227.634 458.551H182.445L322.481 110.943ZM412.859 325.467L346.317 155.139L279.775 325.467H412.859Z"/>
</mask>
<path d="M322.481 110.943V110.052H321.879L321.654 110.61L322.481 110.943ZM370.153 110.943L370.98 110.61L370.755 110.052H370.153V110.943ZM510.189 458.551V459.442H511.509L511.016 458.218L510.189 458.551ZM465 458.551L464.17 458.876L464.392 459.442H465V458.551ZM428.253 364.697L429.083 364.372L428.861 363.805H428.253V364.697ZM264.381 364.697V363.805H263.772L263.55 364.372L264.381 364.697ZM227.634 458.551V459.442H228.242L228.464 458.876L227.634 458.551ZM182.445 458.551L181.618 458.218L181.124 459.442H182.445V458.551ZM412.859 325.467V326.358H414.164L413.689 325.142L412.859 325.467ZM346.317 155.139L347.147 154.814L346.317 152.689L345.486 154.814L346.317 155.139ZM279.775 325.467L278.944 325.142L278.469 326.358H279.775V325.467ZM322.481 110.943V111.835H370.153V110.943V110.052H322.481V110.943ZM370.153 110.943L369.326 111.276L509.362 458.884L510.189 458.551L511.016 458.218L370.98 110.61L370.153 110.943ZM510.189 458.551V457.659H465V458.551V459.442H510.189V458.551ZM465 458.551L465.83 458.226L429.083 364.372L428.253 364.697L427.423 365.022L464.17 458.876L465 458.551ZM428.253 364.697V363.805H264.381V364.697V365.588H428.253V364.697ZM264.381 364.697L263.55 364.372L226.803 458.226L227.634 458.551L228.464 458.876L265.211 365.022L264.381 364.697ZM227.634 458.551V457.659H182.445V458.551V459.442H227.634V458.551ZM182.445 458.551L183.271 458.884L323.308 111.276L322.481 110.943L321.654 110.61L181.618 458.218L182.445 458.551ZM412.859 325.467L413.689 325.142L347.147 154.814L346.317 155.139L345.486 155.463L412.028 325.791L412.859 325.467ZM346.317 155.139L345.486 154.814L278.944 325.142L279.775 325.467L280.605 325.791L347.147 155.463L346.317 155.139ZM279.775 325.467V326.358H412.859V325.467V324.575H279.775V325.467Z" fill="#4450E7" mask="url(#path-3-outside-1_2003_2446)"/>
<mask id="path-5-outside-2_2003_2446" maskUnits="userSpaceOnUse" x="324.446" y="202.551" width="215" height="263" fill="black">
<rect fill="white" x="324.446" y="202.551" width="215" height="263"/>
<path d="M407.502 464.013C383.666 464.013 363.968 457.723 348.409 445.143C333.18 432.563 325.566 414.52 325.566 391.016C325.566 368.173 332.518 350.958 346.422 339.371C360.658 327.453 379.197 320.004 402.04 317.025L461.133 309.079C468.747 308.086 475.037 306.597 480.003 304.61C485.3 302.624 489.438 299.644 492.418 295.672C495.397 291.368 496.887 285.575 496.887 278.291C496.887 265.049 492.252 254.952 482.983 248C473.713 240.717 459.809 237.075 441.27 237.075C421.075 237.075 405.185 240.882 393.598 248.496C382.342 256.111 375.555 267.367 373.238 282.264H331.525C334.835 256.442 346.091 236.909 365.293 223.667C384.494 210.425 409.985 203.804 441.766 203.804C473.548 203.804 497.383 210.425 513.274 223.667C529.496 236.909 537.607 257.104 537.607 284.25V458.551H498.873V410.879C490.597 427.432 478.679 440.508 463.119 450.109C447.891 459.378 429.352 464.013 407.502 464.013ZM415.447 428.259C430.014 428.259 443.422 425.114 455.671 418.824C468.251 412.534 478.182 403.596 485.465 392.009C493.08 380.091 496.887 366.352 496.887 350.792V316.032L507.315 323.977C499.37 328.612 491.921 332.253 484.969 334.902C478.348 337.219 468.085 339.205 454.181 340.861L416.937 345.827C403.033 347.482 391.115 351.454 381.183 357.745C371.583 363.704 366.782 373.966 366.782 388.533C366.782 401.775 371.252 411.707 380.19 418.328C389.128 424.949 400.881 428.259 415.447 428.259Z"/>
</mask>
<path d="M348.409 445.143L347.841 445.83L347.848 445.836L348.409 445.143ZM346.422 339.371L346.993 340.056L346.995 340.055L346.422 339.371ZM402.04 317.025L402.155 317.909L402.158 317.908L402.04 317.025ZM461.133 309.079L461.018 308.195L461.014 308.196L461.133 309.079ZM480.003 304.61L479.69 303.775L479.681 303.779L479.672 303.782L480.003 304.61ZM492.418 295.672L493.131 296.207L493.141 296.193L493.151 296.179L492.418 295.672ZM482.983 248L482.432 248.701L482.44 248.707L482.448 248.713L482.983 248ZM393.598 248.496L393.108 247.751L393.098 247.758L393.598 248.496ZM373.238 282.264V283.156H374.001L374.119 282.401L373.238 282.264ZM331.525 282.264L330.641 282.151L330.512 283.156H331.525V282.264ZM365.293 223.667L365.799 224.401V224.401L365.293 223.667ZM513.274 223.667L512.703 224.352L512.71 224.358L513.274 223.667ZM537.607 458.551V459.442H538.498V458.551H537.607ZM498.873 458.551H497.982V459.442H498.873V458.551ZM498.873 410.879H499.765L498.076 410.48L498.873 410.879ZM463.119 450.109L463.583 450.87L463.587 450.868L463.119 450.109ZM455.671 418.824L455.272 418.027L455.263 418.031L455.671 418.824ZM485.465 392.009L484.714 391.529L484.711 391.534L485.465 392.009ZM496.887 316.032L497.427 315.322L495.995 314.232V316.032H496.887ZM507.315 323.977L507.764 324.747L508.916 324.075L507.855 323.268L507.315 323.977ZM484.969 334.902L485.263 335.743L485.275 335.739L485.286 335.735L484.969 334.902ZM454.181 340.861L454.075 339.975L454.063 339.977L454.181 340.861ZM416.937 345.827L417.043 346.712L417.055 346.71L416.937 345.827ZM381.183 357.745L381.653 358.502L381.66 358.498L381.183 357.745ZM380.19 418.328L380.721 417.611V417.611L380.19 418.328ZM407.502 464.013V463.122C383.83 463.122 364.341 456.878 348.969 444.45L348.409 445.143L347.848 445.836C363.595 458.568 383.503 464.905 407.502 464.905V464.013ZM348.409 445.143L348.977 444.456C333.993 432.078 326.457 414.31 326.457 391.016H325.566H324.674C324.674 414.73 332.368 433.048 347.841 445.83L348.409 445.143ZM325.566 391.016H326.457C326.457 368.362 333.344 351.431 346.993 340.056L346.422 339.371L345.852 338.686C331.693 350.485 324.674 367.983 324.674 391.016H325.566ZM346.422 339.371L346.995 340.055C361.072 328.269 379.44 320.872 402.155 317.909L402.04 317.025L401.924 316.141C378.954 319.137 360.244 326.637 345.85 338.687L346.422 339.371ZM402.04 317.025L402.158 317.908L461.252 309.963L461.133 309.079L461.014 308.196L401.921 316.141L402.04 317.025ZM461.133 309.079L461.248 309.963C468.907 308.964 475.276 307.461 480.334 305.438L480.003 304.61L479.672 303.782C474.798 305.732 468.587 307.208 461.018 308.195L461.133 309.079ZM480.003 304.61L480.316 305.445C485.75 303.407 490.036 300.334 493.131 296.207L492.418 295.672L491.704 295.137C488.841 298.955 484.85 301.84 479.69 303.775L480.003 304.61ZM492.418 295.672L493.151 296.179C496.267 291.678 497.778 285.687 497.778 278.291H496.887H495.995C495.995 285.462 494.528 291.058 491.685 295.164L492.418 295.672ZM496.887 278.291H497.778C497.778 264.814 493.046 254.433 483.518 247.287L482.983 248L482.448 248.713C491.458 255.471 495.995 265.284 495.995 278.291H496.887ZM482.983 248L483.533 247.299C474.039 239.839 459.901 236.183 441.27 236.183V237.075V237.967C459.716 237.967 473.387 241.594 482.432 248.701L482.983 248ZM441.27 237.075V236.183C420.977 236.183 404.893 240.007 393.108 247.751L393.598 248.496L394.087 249.241C405.477 241.757 421.174 237.967 441.27 237.967V237.075ZM393.598 248.496L393.098 247.758C381.614 255.527 374.708 267.014 372.357 282.127L373.238 282.264L374.119 282.401C376.403 267.719 383.07 256.694 394.097 249.235L393.598 248.496ZM373.238 282.264V281.372H331.525V282.264V283.156H373.238V282.264ZM331.525 282.264L332.409 282.377C335.692 256.774 346.831 237.482 365.799 224.401L365.293 223.667L364.786 222.933C345.351 236.337 333.979 256.11 330.641 282.151L331.525 282.264ZM365.293 223.667L365.799 224.401C384.806 211.293 410.102 204.696 441.766 204.696V203.804V202.912C409.868 202.912 384.182 209.557 364.786 222.933L365.293 223.667ZM441.766 203.804V204.696C473.446 204.696 497.039 211.299 512.703 224.352L513.274 223.667L513.845 222.982C497.728 209.551 473.649 202.912 441.766 202.912V203.804ZM513.274 223.667L512.71 224.358C528.666 237.383 536.715 257.286 536.715 284.25H537.607H538.498C538.498 256.922 530.325 236.436 513.838 222.977L513.274 223.667ZM537.607 284.25H536.715V458.551H537.607H538.498V284.25H537.607ZM537.607 458.551V457.659H498.873V458.551V459.442H537.607V458.551ZM498.873 458.551H499.765V410.879H498.873H497.982V458.551H498.873ZM498.873 410.879L498.076 410.48C489.873 426.887 478.068 439.838 462.651 449.35L463.119 450.109L463.587 450.868C479.29 441.179 491.321 427.977 499.671 411.278L498.873 410.879ZM463.119 450.109L462.656 449.347C447.595 458.515 429.225 463.122 407.502 463.122V464.013V464.905C429.478 464.905 448.186 460.242 463.583 450.87L463.119 450.109ZM415.447 428.259V429.151C430.147 429.151 443.695 425.976 456.078 419.617L455.671 418.824L455.263 418.031C443.148 424.253 429.881 427.368 415.447 427.368V428.259ZM455.671 418.824L456.069 419.622C468.791 413.261 478.848 404.212 486.22 392.483L485.465 392.009L484.711 391.534C477.517 402.979 467.71 411.808 455.272 418.027L455.671 418.824ZM485.465 392.009L486.217 392.489C493.932 380.413 497.778 366.504 497.778 350.792H496.887H495.995C495.995 366.2 492.228 379.768 484.714 391.529L485.465 392.009ZM496.887 350.792H497.778V316.032H496.887H495.995V350.792H496.887ZM496.887 316.032L496.347 316.741L506.775 324.686L507.315 323.977L507.855 323.268L497.427 315.322L496.887 316.032ZM507.315 323.977L506.866 323.207C498.953 327.823 491.549 331.441 484.652 334.069L484.969 334.902L485.286 335.735C492.293 333.066 499.786 329.401 507.764 324.747L507.315 323.977ZM484.969 334.902L484.674 334.06C478.149 336.344 467.966 338.322 454.075 339.975L454.181 340.861L454.286 341.746C468.205 340.089 478.547 338.094 485.263 335.743L484.969 334.902ZM454.181 340.861L454.063 339.977L416.819 344.943L416.937 345.827L417.055 346.71L454.299 341.744L454.181 340.861ZM416.937 345.827L416.832 344.941C402.82 346.609 390.77 350.618 380.706 356.991L381.183 357.745L381.66 358.498C391.46 352.291 403.245 348.354 417.043 346.712L416.937 345.827ZM381.183 357.745L380.713 356.987C370.775 363.156 365.891 373.759 365.891 388.533H366.782H367.674C367.674 374.173 372.391 364.251 381.653 358.502L381.183 357.745ZM366.782 388.533H365.891C365.891 401.997 370.449 412.222 379.659 419.044L380.19 418.328L380.721 417.611C372.054 411.191 367.674 401.553 367.674 388.533H366.782ZM380.19 418.328L379.659 419.044C388.793 425.81 400.749 429.151 415.447 429.151V428.259V427.368C401.013 427.368 389.464 424.088 380.721 417.611L380.19 418.328Z" fill="#090051" mask="url(#path-5-outside-2_2003_2446)"/>
<rect x="590" y="258" width="44.5765" height="44.5765" fill="url(#paint1_linear_2003_2446)" style="mix-blend-mode:plus-darker"/>
<rect x="590" y="258" width="44.5765" height="44.5765" stroke="#4450E7" stroke-width="0.445765"/>
<path d="M610.707 289.064C609.509 289.064 608.519 288.747 607.737 288.115C606.971 287.483 606.589 286.576 606.589 285.394C606.589 284.246 606.938 283.38 607.637 282.798C608.353 282.199 609.285 281.824 610.433 281.675L613.403 281.275C613.786 281.225 614.102 281.15 614.352 281.051C614.618 280.951 614.826 280.801 614.976 280.601C615.126 280.385 615.201 280.094 615.201 279.728C615.201 279.062 614.968 278.554 614.502 278.205C614.036 277.839 613.337 277.656 612.405 277.656C611.39 277.656 610.591 277.847 610.008 278.23C609.443 278.613 609.101 279.178 608.985 279.927H606.888C607.055 278.629 607.62 277.647 608.586 276.982C609.551 276.316 610.832 275.983 612.43 275.983C614.027 275.983 615.226 276.316 616.025 276.982C616.84 277.647 617.248 278.662 617.248 280.027V288.789H615.301V286.393C614.885 287.225 614.285 287.882 613.503 288.365C612.738 288.831 611.806 289.064 610.707 289.064ZM611.107 287.266C611.839 287.266 612.513 287.108 613.129 286.792C613.761 286.476 614.26 286.027 614.627 285.444C615.009 284.845 615.201 284.154 615.201 283.372V281.625L615.725 282.024C615.326 282.257 614.951 282.44 614.602 282.573C614.269 282.69 613.753 282.79 613.054 282.873L611.182 283.122C610.483 283.206 609.884 283.405 609.384 283.722C608.902 284.021 608.66 284.537 608.66 285.269C608.66 285.935 608.885 286.434 609.334 286.767C609.784 287.1 610.375 287.266 611.107 287.266Z" fill="white"/>
<rect x="590.193" y="413.672" width="44.5765" height="44.5765" fill="#F4F4F6"/>
<rect x="590.193" y="413.672" width="44.5765" height="44.5765" stroke="#4450E7" stroke-width="0.445765"/>
<path d="M612.486 444.736C611.122 444.736 610.007 444.394 609.141 443.712C608.276 443.03 607.635 442.04 607.219 440.741C606.803 439.427 606.595 437.804 606.595 435.874C606.595 433.927 606.795 432.304 607.194 431.006C607.61 429.691 608.251 428.693 609.116 428.01C609.998 427.328 611.122 426.987 612.486 426.987C613.851 426.987 614.966 427.328 615.831 428.01C616.697 428.693 617.337 429.691 617.753 431.006C618.17 432.304 618.378 433.918 618.378 435.849C618.378 437.796 618.17 439.427 617.753 440.741C617.354 442.04 616.713 443.03 615.831 443.712C614.966 444.394 613.851 444.736 612.486 444.736ZM612.486 443.188C613.535 443.188 614.359 442.897 614.958 442.314C615.573 441.732 616.006 440.908 616.256 439.843C616.522 438.761 616.655 437.438 616.655 435.874C616.655 434.326 616.522 433.02 616.256 431.955C616.006 430.873 615.573 430.032 614.958 429.433C614.342 428.834 613.518 428.535 612.486 428.535C611.438 428.535 610.606 428.826 609.99 429.408C609.391 429.991 608.958 430.823 608.692 431.905C608.442 432.97 608.318 434.284 608.318 435.849C608.318 437.396 608.442 438.711 608.692 439.793C608.958 440.858 609.399 441.69 610.015 442.289C610.631 442.888 611.455 443.188 612.486 443.188Z" fill="#090051"/>
<rect x="590.193" y="146.211" width="44.5765" height="44.5765" fill="#F4F4F6"/>
<rect x="590.193" y="146.211" width="44.5765" height="44.5765" stroke="#4450E7" stroke-width="0.445765"/>
<path d="M606.725 159.526H608.448V168.987L617.11 159.526H619.431L612.641 166.765L620.006 177H617.809L611.418 168.038L608.448 171.209V177H606.725V159.526Z" fill="#090051"/>
<rect x="590.193" y="302.23" width="44.5765" height="44.5765" fill="#F4F4F6"/>
<rect x="590.193" y="302.23" width="44.5765" height="44.5765" stroke="#4450E7" stroke-width="0.445765"/>
<path d="M607.816 315.271H609.489V327.153L615.755 320.563H618.051L612.984 325.68L618.525 333.02H616.429L611.835 326.854L609.489 329.25V333.02H607.816V315.271Z" fill="#090051"/>
<rect x="590.193" y="190.789" width="44.5765" height="44.5765" fill="#F4F4F6"/>
<rect x="590.193" y="190.789" width="44.5765" height="44.5765" stroke="#4450E7" stroke-width="0.445765"/>
<path d="M612.481 222.027C610.468 222.027 608.862 221.462 607.664 220.33C606.465 219.182 605.866 217.567 605.866 215.487V204.104H607.614V215.462C607.614 217.11 608.038 218.341 608.887 219.157C609.752 219.972 610.95 220.38 612.481 220.38C614.012 220.38 615.202 219.972 616.051 219.157C616.916 218.341 617.349 217.11 617.349 215.462V204.104H619.121V215.487C619.121 217.567 618.522 219.182 617.324 220.33C616.126 221.462 614.512 222.027 612.481 222.027Z" fill="#090051"/>
<rect x="590.193" y="346.807" width="44.5765" height="44.5765" fill="#F4F4F6"/>
<rect x="590.193" y="346.807" width="44.5765" height="44.5765" stroke="#4450E7" stroke-width="0.445765"/>
<path d="M611.494 377.87C610.196 377.87 609.181 377.488 608.449 376.722C607.716 375.956 607.35 374.908 607.35 373.577V365.139H609.023V373.352C609.023 374.351 609.281 375.108 609.797 375.624C610.329 376.14 611.028 376.397 611.894 376.397C613.075 376.397 614.024 375.956 614.739 375.074C615.455 374.176 615.813 373.011 615.813 371.58V365.139H617.51V377.596H615.863V375C615.48 375.898 614.922 376.606 614.19 377.121C613.458 377.621 612.559 377.87 611.494 377.87Z" fill="#090051"/>
<rect x="634.77" y="101.635" width="44.5765" height="44.5765" fill="#F4F4F6"/>
<rect x="634.77" y="101.635" width="44.5765" height="44.5765" stroke="#4450E7" stroke-width="0.445765"/>
<path d="M651.204 114.95H658.668C659.633 114.95 660.449 115.141 661.114 115.524C661.796 115.907 662.304 116.414 662.637 117.047C662.97 117.662 663.136 118.328 663.136 119.044C663.136 119.926 662.895 120.741 662.412 121.49C661.946 122.239 661.256 122.772 660.34 123.088C661.505 123.371 662.387 123.928 662.986 124.76C663.602 125.576 663.91 126.483 663.91 127.481C663.91 128.33 663.694 129.137 663.261 129.903C662.828 130.651 662.188 131.259 661.339 131.725C660.507 132.191 659.517 132.424 658.368 132.424H651.204V114.95ZM658.293 130.776C659.109 130.776 659.799 130.618 660.365 130.302C660.948 129.969 661.38 129.545 661.663 129.029C661.946 128.496 662.088 127.922 662.088 127.306C662.088 126.707 661.946 126.158 661.663 125.659C661.38 125.143 660.956 124.735 660.39 124.436C659.841 124.12 659.175 123.961 658.393 123.961H652.926V130.776H658.293ZM657.744 122.464C658.51 122.464 659.159 122.322 659.691 122.039C660.224 121.74 660.632 121.349 660.914 120.866C661.197 120.383 661.339 119.876 661.339 119.343C661.339 118.561 661.064 117.912 660.515 117.396C659.966 116.864 659.192 116.597 658.194 116.597H652.926V122.464H657.744Z" fill="#090051"/>
<rect x="634.77" y="257.652" width="44.5765" height="44.5765" fill="#F4F4F6"/>
<rect x="634.77" y="257.652" width="44.5765" height="44.5765" stroke="#4450E7" stroke-width="0.445765"/>
<path d="M657.727 288.716C656.629 288.716 655.697 288.466 654.931 287.967C654.183 287.468 653.625 286.827 653.259 286.045V288.441H651.661V270.693H653.334V278.531C653.7 277.716 654.257 277.05 655.006 276.534C655.772 276.002 656.72 275.735 657.852 275.735C659.05 275.735 660.057 276.018 660.873 276.584C661.705 277.133 662.32 277.89 662.72 278.856C663.136 279.821 663.344 280.903 663.344 282.101C663.344 283.332 663.136 284.447 662.72 285.446C662.304 286.428 661.671 287.218 660.823 287.817C659.991 288.416 658.959 288.716 657.727 288.716ZM657.503 287.193C658.884 287.193 659.907 286.736 660.573 285.82C661.239 284.888 661.572 283.674 661.572 282.176C661.572 281.21 661.43 280.37 661.147 279.654C660.881 278.939 660.448 278.373 659.849 277.957C659.25 277.541 658.493 277.333 657.577 277.333C656.213 277.333 655.164 277.782 654.432 278.681C653.7 279.58 653.334 280.786 653.334 282.301C653.334 283.266 653.492 284.115 653.808 284.847C654.124 285.579 654.59 286.153 655.206 286.569C655.838 286.985 656.604 287.193 657.503 287.193Z" fill="#090051"/>
<rect x="634.77" y="413.672" width="44.5765" height="44.5765" fill="#F4F4F6"/>
<rect x="634.77" y="413.672" width="44.5765" height="44.5765" stroke="#4450E7" stroke-width="0.445765"/>
<path d="M652.045 442.863H656.863V429.383C656.33 429.883 655.698 430.282 654.966 430.582C654.233 430.865 653.476 431.039 652.694 431.106V429.583C653.559 429.467 654.367 429.217 655.115 428.834C655.881 428.451 656.472 427.936 656.888 427.286H658.56V442.863H663.104V444.461H652.045V442.863Z" fill="#090051"/>
<rect x="634.77" y="146.211" width="44.5765" height="44.5765" fill="#F4F4F6"/>
<rect x="634.77" y="146.211" width="44.5765" height="44.5765" stroke="#4450E7" stroke-width="0.445765"/>
<path d="M652.496 159.526H654.218V175.352H663.13V177H652.496V159.526Z" fill="#090051"/>
<rect x="634.77" y="302.23" width="44.5765" height="44.5765" fill="#F4F4F6"/>
<rect x="634.77" y="302.23" width="44.5765" height="44.5765" stroke="#4450E7" stroke-width="0.445765"/>
<path d="M656.22 315.271H657.892V333.02H656.22V315.271Z" fill="#090051"/>
<rect x="634.77" y="190.789" width="44.5765" height="44.5765" fill="#F4F4F6"/>
<rect x="634.77" y="190.789" width="44.5765" height="44.5765" stroke="#4450E7" stroke-width="0.445765"/>
<path d="M649.508 204.104H651.38L657.047 219.656L662.714 204.104H664.611L658.07 221.578H656.048L649.508 204.104Z" fill="#090051"/>
<rect x="634.77" y="346.807" width="44.5765" height="44.5765" fill="#F4F4F6"/>
<rect x="634.77" y="346.807" width="44.5765" height="44.5765" stroke="#4450E7" stroke-width="0.445765"/>
<path d="M651.026 365.139H652.848L657.067 375.948L661.261 365.139H663.083L658.041 377.596H656.068L651.026 365.139Z" fill="#090051"/>
<rect x="679.346" y="101.635" width="44.5765" height="44.5765" fill="#F4F4F6"/>
<rect x="679.346" y="101.635" width="44.5765" height="44.5765" stroke="#4450E7" stroke-width="0.445765"/>
<path d="M702.033 132.873C700.252 132.873 698.755 132.465 697.54 131.65C696.325 130.818 695.41 129.711 694.794 128.33C694.195 126.932 693.895 125.393 693.895 123.712C693.895 121.781 694.261 120.125 694.994 118.744C695.742 117.346 696.758 116.298 698.039 115.599C699.32 114.883 700.743 114.525 702.308 114.525C703.589 114.525 704.746 114.758 705.778 115.224C706.826 115.674 707.675 116.339 708.324 117.221C708.973 118.103 709.339 119.152 709.422 120.367H707.6C707.467 119.035 706.909 118.004 705.927 117.271C704.945 116.539 703.706 116.173 702.208 116.173C700.993 116.173 699.886 116.456 698.888 117.022C697.906 117.571 697.124 118.403 696.541 119.518C695.975 120.633 695.693 121.998 695.693 123.612C695.693 125.043 695.926 126.341 696.391 127.506C696.874 128.654 697.59 129.561 698.538 130.227C699.504 130.893 700.685 131.226 702.083 131.226C703.098 131.226 704.013 131.051 704.829 130.701C705.644 130.352 706.302 129.828 706.801 129.129C707.317 128.43 707.616 127.598 707.7 126.632H709.522C709.405 127.947 709.006 129.079 708.324 130.027C707.641 130.959 706.751 131.667 705.653 132.149C704.571 132.632 703.364 132.873 702.033 132.873Z" fill="#090051"/>
<rect x="679.346" y="257.652" width="44.5765" height="44.5765" fill="#F4F4F6"/>
<rect x="679.346" y="257.652" width="44.5765" height="44.5765" stroke="#4450E7" stroke-width="0.445765"/>
<path d="M701.825 288.716C700.56 288.716 699.495 288.433 698.63 287.867C697.781 287.301 697.14 286.536 696.707 285.571C696.291 284.589 696.083 283.499 696.083 282.301C696.083 281.069 696.308 279.962 696.757 278.98C697.207 277.982 697.881 277.191 698.779 276.609C699.678 276.027 700.768 275.735 702.049 275.735C703.531 275.735 704.729 276.118 705.644 276.884C706.576 277.632 707.092 278.714 707.192 280.129H705.469C705.403 279.213 705.062 278.515 704.446 278.032C703.83 277.549 703.023 277.308 702.025 277.308C701.059 277.308 700.26 277.516 699.628 277.932C699.012 278.348 698.555 278.931 698.255 279.679C697.956 280.412 697.806 281.26 697.806 282.226C697.806 283.174 697.947 284.023 698.23 284.772C698.53 285.504 698.987 286.087 699.603 286.519C700.236 286.935 701.009 287.143 701.925 287.143C702.94 287.143 703.755 286.885 704.371 286.369C705.003 285.854 705.37 285.105 705.469 284.123H707.192C707.059 285.554 706.501 286.677 705.519 287.493C704.554 288.308 703.323 288.716 701.825 288.716Z" fill="#090051"/>
<rect x="679.346" y="413.672" width="44.5765" height="44.5765" fill="#F4F4F6"/>
<rect x="679.346" y="413.672" width="44.5765" height="44.5765" stroke="#4450E7" stroke-width="0.445765"/>
<path d="M695.798 442.913L701.664 437.471C702.496 436.706 703.154 436.057 703.636 435.524C704.135 434.975 704.535 434.401 704.834 433.802C705.134 433.203 705.284 432.554 705.284 431.855C705.284 430.823 704.959 430.016 704.31 429.433C703.661 428.834 702.762 428.535 701.614 428.535C700.349 428.535 699.343 428.892 698.594 429.608C697.861 430.324 697.454 431.422 697.371 432.903H695.648C695.681 431.605 695.956 430.515 696.472 429.633C697.004 428.751 697.72 428.094 698.619 427.661C699.517 427.212 700.549 426.987 701.714 426.987C703.345 426.987 704.643 427.411 705.608 428.26C706.573 429.092 707.056 430.249 707.056 431.73C707.056 432.612 706.856 433.436 706.457 434.201C706.074 434.967 705.567 435.691 704.934 436.373C704.302 437.039 703.395 437.921 702.213 439.019L698.094 442.813H707.63V444.461H695.798V442.913Z" fill="#090051"/>
<rect x="679.346" y="146.211" width="44.5765" height="44.5765" fill="#F4F4F6"/>
<rect x="679.346" y="146.211" width="44.5765" height="44.5765" stroke="#4450E7" stroke-width="0.445765"/>
<path d="M693.257 159.526H695.829L701.62 175.028L707.436 159.526H710.008V177H708.31V161.773L702.544 177H700.721L694.955 161.773V177H693.257V159.526Z" fill="#090051"/>
<rect x="679.346" y="302.23" width="44.5765" height="44.5765" fill="#F4F4F6"/>
<rect x="679.346" y="302.23" width="44.5765" height="44.5765" stroke="#4450E7" stroke-width="0.445765"/>
<path d="M693.081 320.563H694.729V322.885C695.028 322.086 695.519 321.462 696.201 321.012C696.884 320.546 697.682 320.313 698.598 320.313C699.513 320.313 700.287 320.546 700.919 321.012C701.568 321.478 701.984 322.152 702.167 323.034C702.5 322.169 703.041 321.503 703.79 321.037C704.556 320.555 705.421 320.313 706.386 320.313C707.551 320.313 708.491 320.655 709.207 321.337C709.939 322.003 710.305 322.951 710.305 324.183V333.02H708.608V324.707C708.608 323.758 708.375 323.043 707.909 322.56C707.443 322.061 706.819 321.811 706.037 321.811C705.404 321.811 704.814 321.969 704.264 322.286C703.732 322.602 703.307 323.068 702.991 323.683C702.692 324.299 702.542 325.04 702.542 325.905V333.02H700.844V324.707C700.844 323.758 700.603 323.043 700.121 322.56C699.655 322.061 699.03 321.811 698.248 321.811C697.616 321.811 697.033 321.969 696.501 322.286C695.968 322.602 695.544 323.068 695.228 323.683C694.912 324.299 694.754 325.04 694.754 325.905V333.02H693.081V320.563Z" fill="#090051"/>
<rect x="679.346" y="190.789" width="44.5765" height="44.5765" fill="#F4F4F6"/>
<rect x="679.346" y="190.789" width="44.5765" height="44.5765" stroke="#4450E7" stroke-width="0.445765"/>
<path d="M690.516 204.104H692.339L696.208 219.207L700.651 204.104H702.648L707.067 219.207L710.936 204.104H712.783L708.115 221.578H706.118L701.65 206.575L697.157 221.578H695.16L690.516 204.104Z" fill="#090051"/>
<rect x="679.346" y="346.807" width="44.5765" height="44.5765" fill="#F4F4F6"/>
<rect x="679.346" y="346.807" width="44.5765" height="44.5765" stroke="#4450E7" stroke-width="0.445765"/>
<path d="M692.388 365.139H694.16L697.48 375.798L700.65 365.139H702.647L705.793 375.798L709.113 365.139H710.91L706.816 377.596H704.819L701.649 367.311L698.454 377.596H696.457L692.388 365.139Z" fill="#090051"/>
<rect x="723.923" y="101.635" width="44.5765" height="44.5765" fill="#F4F4F6"/>
<rect x="723.923" y="101.635" width="44.5765" height="44.5765" stroke="#4450E7" stroke-width="0.445765"/>
<path d="M739.772 114.95H745.214C747.028 114.95 748.559 115.316 749.808 116.048C751.056 116.78 751.988 117.787 752.603 119.069C753.236 120.333 753.552 121.781 753.552 123.412C753.552 125.093 753.219 126.616 752.553 127.98C751.904 129.328 750.914 130.41 749.583 131.226C748.268 132.024 746.654 132.424 744.74 132.424H739.772V114.95ZM744.79 130.776C746.338 130.776 747.627 130.468 748.659 129.853C749.691 129.22 750.457 128.363 750.956 127.281C751.472 126.183 751.73 124.927 751.73 123.512C751.73 122.147 751.488 120.941 751.006 119.892C750.523 118.844 749.783 118.037 748.784 117.471C747.802 116.889 746.562 116.597 745.065 116.597H741.495V130.776H744.79Z" fill="#090051"/>
<rect x="723.923" y="257.652" width="44.5765" height="44.5765" fill="#F4F4F6"/>
<rect x="723.923" y="257.652" width="44.5765" height="44.5765" stroke="#4450E7" stroke-width="0.445765"/>
<path d="M745.52 288.716C744.305 288.716 743.273 288.425 742.425 287.842C741.593 287.26 740.968 286.486 740.552 285.521C740.153 284.539 739.953 283.441 739.953 282.226C739.953 281.011 740.161 279.912 740.577 278.931C740.993 277.949 741.618 277.175 742.45 276.609C743.298 276.027 744.338 275.735 745.57 275.735C746.668 275.735 747.575 275.968 748.291 276.434C749.007 276.884 749.547 277.499 749.914 278.282V270.693H751.611V288.441H749.938V285.795C749.606 286.677 749.081 287.385 748.366 287.917C747.667 288.45 746.718 288.716 745.52 288.716ZM745.745 287.143C746.66 287.143 747.426 286.927 748.041 286.494C748.657 286.045 749.123 285.446 749.439 284.697C749.755 283.948 749.914 283.091 749.914 282.126C749.914 280.661 749.556 279.488 748.84 278.606C748.141 277.707 747.118 277.258 745.77 277.258C744.838 277.258 744.064 277.474 743.448 277.907C742.849 278.323 742.4 278.906 742.1 279.654C741.817 280.387 741.676 281.227 741.676 282.176C741.676 283.657 742.009 284.855 742.674 285.77C743.357 286.686 744.38 287.143 745.745 287.143Z" fill="#090051"/>
<rect x="723.923" y="413.672" width="44.5765" height="44.5765" fill="#F4F4F6"/>
<rect x="723.923" y="413.672" width="44.5765" height="44.5765" stroke="#4450E7" stroke-width="0.445765"/>
<path d="M746.391 444.736C744.544 444.736 743.054 444.253 741.922 443.288C740.791 442.322 740.225 440.949 740.225 439.169H741.947C741.947 440.517 742.363 441.524 743.196 442.189C744.028 442.855 745.101 443.188 746.416 443.188C747.681 443.188 748.679 442.897 749.411 442.314C750.144 441.732 750.51 440.916 750.51 439.868C750.51 438.853 750.11 438.054 749.311 437.471C748.529 436.872 747.406 436.573 745.941 436.573H744.768V434.95H745.917C746.799 434.95 747.556 434.8 748.188 434.501C748.837 434.201 749.32 433.802 749.636 433.303C749.969 432.787 750.135 432.212 750.135 431.58C750.135 430.598 749.777 429.849 749.062 429.333C748.363 428.801 747.489 428.535 746.441 428.535C745.625 428.535 744.901 428.684 744.269 428.984C743.637 429.284 743.137 429.741 742.771 430.357C742.405 430.956 742.222 431.688 742.222 432.554H740.475C740.475 431.339 740.741 430.315 741.273 429.483C741.823 428.651 742.555 428.027 743.47 427.611C744.402 427.195 745.426 426.987 746.541 426.987C747.572 426.987 748.488 427.17 749.287 427.536C750.102 427.886 750.734 428.393 751.184 429.059C751.633 429.725 751.858 430.507 751.858 431.405C751.858 432.47 751.55 433.369 750.934 434.101C750.318 434.834 749.503 435.341 748.488 435.624C749.703 435.874 750.626 436.381 751.259 437.147C751.908 437.896 752.232 438.811 752.232 439.893C752.232 440.808 752.007 441.632 751.558 442.364C751.125 443.08 750.468 443.654 749.586 444.086C748.704 444.519 747.639 444.736 746.391 444.736Z" fill="#090051"/>
<rect x="723.923" y="146.211" width="44.5765" height="44.5765" fill="#F4F4F6"/>
<rect x="723.923" y="146.211" width="44.5765" height="44.5765" stroke="#4450E7" stroke-width="0.445765"/>
<path d="M739.602 159.526H741.799L751.085 174.454V159.526H752.832V177H750.785L741.324 161.972V177H739.602V159.526Z" fill="#090051"/>
<rect x="723.923" y="302.23" width="44.5765" height="44.5765" fill="#F4F4F6"/>
<rect x="723.923" y="302.23" width="44.5765" height="44.5765" stroke="#4450E7" stroke-width="0.445765"/>
<path d="M741.071 320.563H742.718V323.184C743.101 322.302 743.675 321.603 744.441 321.087C745.206 320.571 746.155 320.313 747.287 320.313C748.635 320.313 749.666 320.688 750.382 321.437C751.114 322.186 751.48 323.234 751.48 324.582V333.02H749.783V324.857C749.783 323.875 749.517 323.126 748.984 322.61C748.451 322.077 747.736 321.811 746.837 321.811C746.072 321.811 745.373 322.003 744.74 322.385C744.125 322.751 743.634 323.292 743.268 324.008C742.918 324.707 742.743 325.539 742.743 326.504V333.02H741.071V320.563Z" fill="#090051"/>
<rect x="723.923" y="190.789" width="44.5765" height="44.5765" fill="#F4F4F6"/>
<rect x="723.923" y="190.789" width="44.5765" height="44.5765" stroke="#4450E7" stroke-width="0.445765"/>
<path d="M745.225 212.542L739.384 204.104H741.506L746.224 211.069L750.942 204.104H753.039L747.222 212.542L753.463 221.578H751.341L746.224 214.014L741.081 221.578H738.985L745.225 212.542Z" fill="#090051"/>
<rect x="723.923" y="346.807" width="44.5765" height="44.5765" fill="#F4F4F6"/>
<rect x="723.923" y="346.807" width="44.5765" height="44.5765" stroke="#4450E7" stroke-width="0.445765"/>
<path d="M745.223 371.18L740.654 365.139H742.751L746.221 369.857L749.691 365.139H751.763L747.195 371.18L752.037 377.596H749.941L746.221 372.503L742.502 377.596H740.405L745.223 371.18Z" fill="#090051"/>
<rect x="768.499" y="101.635" width="44.5765" height="44.5765" fill="#F4F4F6"/>
<rect x="768.499" y="101.635" width="44.5765" height="44.5765" stroke="#4450E7" stroke-width="0.445765"/>
<path d="M785.702 114.95H796.56V116.597H787.424V122.788H795.662V124.411H787.424V130.776H797.01V132.424H785.702V114.95Z" fill="#090051"/>
<rect x="768.499" y="257.652" width="44.5765" height="44.5765" fill="#F4F4F6"/>
<rect x="768.499" y="257.652" width="44.5765" height="44.5765" stroke="#4450E7" stroke-width="0.445765"/>
<path d="M790.992 288.716C789.81 288.716 788.778 288.475 787.896 287.992C787.031 287.493 786.357 286.761 785.874 285.795C785.408 284.83 785.176 283.665 785.176 282.301C785.176 281.019 785.408 279.887 785.874 278.906C786.357 277.907 787.031 277.133 787.896 276.584C788.778 276.018 789.819 275.735 791.017 275.735C792.182 275.735 793.172 276.01 793.987 276.559C794.803 277.108 795.41 277.874 795.81 278.856C796.209 279.838 796.409 280.986 796.409 282.301V282.65H786.074V281.202H794.686C794.62 280.387 794.445 279.688 794.162 279.105C793.896 278.506 793.496 278.049 792.964 277.732C792.448 277.4 791.799 277.233 791.017 277.233C790.102 277.233 789.328 277.449 788.695 277.882C788.063 278.298 787.597 278.889 787.297 279.654C786.998 280.403 786.848 281.277 786.848 282.276C786.848 283.341 787.006 284.248 787.322 284.997C787.655 285.729 788.129 286.278 788.745 286.644C789.378 287.01 790.135 287.193 791.017 287.193C791.932 287.193 792.673 287.002 793.239 286.619C793.804 286.236 794.245 285.654 794.562 284.872H796.309C795.926 286.137 795.285 287.093 794.387 287.742C793.488 288.391 792.356 288.716 790.992 288.716Z" fill="#090051"/>
<rect x="768.499" y="413.672" width="44.5765" height="44.5765" fill="#F4F4F6"/>
<rect x="768.499" y="413.672" width="44.5765" height="44.5765" stroke="#4450E7" stroke-width="0.445765"/>
<path d="M792.814 440.292H784.027V438.744L792.34 427.286H794.512V438.695H797.582V440.317H794.512V444.461H792.814V440.292ZM792.814 438.695V429.084L785.9 438.695H792.814Z" fill="#090051"/>
<rect x="768.499" y="146.211" width="44.5765" height="44.5765" fill="#F4F4F6"/>
<rect x="768.499" y="146.211" width="44.5765" height="44.5765" stroke="#4450E7" stroke-width="0.445765"/>
<path d="M790.792 177.449C788.978 177.449 787.43 177.025 786.148 176.176C784.884 175.327 783.927 174.204 783.278 172.806C782.645 171.408 782.329 169.894 782.329 168.263C782.329 166.632 782.645 165.126 783.278 163.745C783.927 162.347 784.884 161.223 786.148 160.375C787.43 159.526 788.978 159.102 790.792 159.102C792.589 159.102 794.128 159.526 795.41 160.375C796.691 161.223 797.648 162.347 798.28 163.745C798.929 165.126 799.254 166.632 799.254 168.263C799.254 169.894 798.929 171.408 798.28 172.806C797.631 174.204 796.666 175.327 795.385 176.176C794.12 177.025 792.589 177.449 790.792 177.449ZM790.792 175.802C792.223 175.802 793.438 175.461 794.436 174.778C795.451 174.096 796.2 173.181 796.683 172.032C797.182 170.884 797.432 169.628 797.432 168.263C797.432 166.898 797.182 165.642 796.683 164.494C796.2 163.345 795.451 162.438 794.436 161.773C793.438 161.09 792.223 160.749 790.792 160.749C789.344 160.749 788.121 161.09 787.122 161.773C786.124 162.438 785.375 163.345 784.875 164.494C784.376 165.642 784.126 166.898 784.126 168.263C784.126 169.628 784.376 170.884 784.875 172.032C785.375 173.181 786.124 174.096 787.122 174.778C788.121 175.461 789.344 175.802 790.792 175.802Z" fill="#090051"/>
<rect x="768.499" y="302.23" width="44.5765" height="44.5765" fill="#F4F4F6"/>
<rect x="768.499" y="302.23" width="44.5765" height="44.5765" stroke="#4450E7" stroke-width="0.445765"/>
<path d="M790.788 333.294C789.606 333.294 788.566 333.036 787.667 332.52C786.769 332.004 786.07 331.255 785.57 330.274C785.088 329.292 784.846 328.135 784.846 326.804C784.846 325.472 785.088 324.316 785.57 323.334C786.07 322.352 786.769 321.603 787.667 321.087C788.566 320.571 789.606 320.313 790.788 320.313C791.969 320.313 793.009 320.571 793.908 321.087C794.807 321.603 795.506 322.352 796.005 323.334C796.504 324.316 796.754 325.472 796.754 326.804C796.754 328.135 796.504 329.292 796.005 330.274C795.506 331.255 794.807 332.004 793.908 332.52C793.009 333.036 791.969 333.294 790.788 333.294ZM790.788 331.721C791.636 331.721 792.377 331.53 793.009 331.147C793.642 330.765 794.133 330.207 794.482 329.475C794.832 328.726 795.006 327.836 795.006 326.804C795.006 325.755 794.832 324.865 794.482 324.133C794.133 323.384 793.642 322.826 793.009 322.46C792.377 322.077 791.636 321.886 790.788 321.886C789.939 321.886 789.198 322.077 788.566 322.46C787.933 322.826 787.443 323.384 787.093 324.133C786.744 324.865 786.569 325.755 786.569 326.804C786.569 327.836 786.744 328.726 787.093 329.475C787.443 330.207 787.933 330.765 788.566 331.147C789.198 331.53 789.939 331.721 790.788 331.721Z" fill="#090051"/>
<rect x="768.499" y="190.789" width="44.5765" height="44.5765" fill="#F4F4F6"/>
<rect x="768.499" y="190.789" width="44.5765" height="44.5765" stroke="#4450E7" stroke-width="0.445765"/>
<path d="M789.904 214.264L783.738 204.104H785.81L790.777 212.716L795.77 204.104H797.842L791.651 214.264V221.578H789.904V214.264Z" fill="#090051"/>
<rect x="768.499" y="346.807" width="44.5765" height="44.5765" fill="#F4F4F6"/>
<rect x="768.499" y="346.807" width="44.5765" height="44.5765" stroke="#4450E7" stroke-width="0.445765"/>
<path d="M785.861 380.192H787.084C787.8 380.192 788.357 380.042 788.757 379.743C789.173 379.46 789.506 379.019 789.755 378.419L790.13 377.446L784.987 365.139H786.81L790.953 375.299L794.823 365.139H796.595L791.203 378.894C790.804 379.892 790.279 380.608 789.63 381.041C788.998 381.473 788.149 381.69 787.084 381.69H785.861V380.192Z" fill="#090051"/>
<rect x="813.076" y="101.635" width="44.5765" height="44.5765" fill="#F4F4F6"/>
<rect x="813.076" y="101.635" width="44.5765" height="44.5765" stroke="#4450E7" stroke-width="0.445765"/>
<path d="M830.888 114.95H841.747V116.597H832.61V122.788H840.848V124.411H832.61V132.424H830.888V114.95Z" fill="#090051"/>
<rect x="813.076" y="257.652" width="44.5765" height="44.5765" fill="#F4F4F6"/>
<rect x="813.076" y="257.652" width="44.5765" height="44.5765" stroke="#4450E7" stroke-width="0.445765"/>
<path d="M834.143 277.458H832.071V275.985H834.143V273.938C834.143 272.823 834.393 272.008 834.892 271.492C835.392 270.959 836.14 270.693 837.139 270.693H838.911V272.191H837.463C836.881 272.191 836.465 272.332 836.215 272.615C835.966 272.881 835.841 273.339 835.841 273.988V275.985H838.587V277.458H835.841V288.441H834.143V277.458Z" fill="#090051"/>
<rect x="813.076" y="413.672" width="44.5765" height="44.5765" fill="#F4F4F6"/>
<rect x="813.076" y="413.672" width="44.5765" height="44.5765" stroke="#4450E7" stroke-width="0.445765"/>
<path d="M835.444 444.736C834.296 444.736 833.272 444.511 832.373 444.062C831.491 443.612 830.801 442.971 830.301 442.139C829.802 441.307 829.544 440.325 829.528 439.194H831.3C831.367 440.508 831.766 441.507 832.498 442.189C833.247 442.855 834.229 443.188 835.444 443.188C836.759 443.188 837.757 442.813 838.439 442.065C839.138 441.299 839.488 440.292 839.488 439.044C839.488 437.746 839.13 436.714 838.414 435.949C837.699 435.183 836.725 434.8 835.494 434.8C834.811 434.8 834.171 434.925 833.572 435.175C832.989 435.408 832.465 435.749 831.999 436.198H830.276L831.525 427.286H840.411V428.934H832.798L831.999 434.651C832.565 434.168 833.181 433.818 833.846 433.602C834.528 433.386 835.211 433.278 835.893 433.278C836.975 433.278 837.915 433.519 838.714 434.002C839.529 434.484 840.153 435.15 840.586 435.999C841.019 436.847 841.235 437.821 841.235 438.919C841.235 440.034 841.011 441.033 840.561 441.915C840.112 442.797 839.454 443.487 838.589 443.987C837.724 444.486 836.675 444.736 835.444 444.736Z" fill="#090051"/>
<rect x="813.076" y="146.211" width="44.5765" height="44.5765" fill="#F4F4F6"/>
<rect x="813.076" y="146.211" width="44.5765" height="44.5765" stroke="#4450E7" stroke-width="0.445765"/>
<path d="M829.73 159.526H836.869C838.001 159.526 838.958 159.759 839.74 160.225C840.539 160.674 841.138 161.273 841.537 162.022C841.937 162.771 842.136 163.595 842.136 164.494C842.136 165.442 841.92 166.316 841.487 167.115C841.055 167.914 840.414 168.554 839.565 169.037C838.716 169.503 837.71 169.736 836.545 169.736H831.452V177H829.73V159.526ZM836.445 168.113C837.66 168.113 838.608 167.805 839.291 167.19C839.973 166.557 840.314 165.692 840.314 164.593C840.314 163.528 839.989 162.696 839.34 162.097C838.708 161.481 837.784 161.174 836.57 161.174H831.452V168.113H836.445Z" fill="#090051"/>
<rect x="813.076" y="302.23" width="44.5765" height="44.5765" fill="#F4F4F6"/>
<rect x="813.076" y="302.23" width="44.5765" height="44.5765" stroke="#4450E7" stroke-width="0.445765"/>
<path d="M829.98 320.563H831.627V323.259C831.944 322.377 832.493 321.67 833.275 321.137C834.057 320.588 835.014 320.313 836.146 320.313C837.194 320.313 838.126 320.546 838.942 321.012C839.774 321.462 840.431 322.169 840.914 323.134C841.396 324.083 841.638 325.256 841.638 326.654C841.638 328.069 841.388 329.258 840.889 330.224C840.406 331.172 839.74 331.88 838.892 332.346C838.043 332.795 837.078 333.02 835.996 333.02C834.881 333.02 833.974 332.795 833.275 332.346C832.576 331.88 832.035 331.289 831.652 330.573V337.812H829.98V320.563ZM835.821 331.497C837.036 331.497 838.018 331.089 838.767 330.274C839.516 329.458 839.89 328.252 839.89 326.654C839.89 325.09 839.516 323.908 838.767 323.109C838.035 322.31 837.053 321.911 835.821 321.911C834.59 321.911 833.583 322.302 832.801 323.084C832.035 323.866 831.652 325.065 831.652 326.679C831.652 327.761 831.835 328.659 832.202 329.375C832.568 330.091 833.059 330.623 833.674 330.973C834.307 331.322 835.022 331.497 835.821 331.497Z" fill="#090051"/>
<rect x="813.076" y="190.789" width="44.5765" height="44.5765" fill="#F4F4F6"/>
<rect x="813.076" y="190.789" width="44.5765" height="44.5765" stroke="#4450E7" stroke-width="0.445765"/>
<path d="M828.905 220.03L839.714 205.752H829.179V204.104H841.91V205.652L831.102 219.931H842.035V221.578H828.905V220.03Z" fill="#090051"/>
<rect x="813.076" y="346.807" width="44.5765" height="44.5765" fill="#F4F4F6"/>
<rect x="813.076" y="346.807" width="44.5765" height="44.5765" stroke="#4450E7" stroke-width="0.445765"/>
<path d="M830.255 376.173L838.118 366.612H830.28V365.139H840.265V366.537L832.402 376.098H840.465V377.596H830.255V376.173Z" fill="#090051"/>
<rect x="857.652" y="101.635" width="44.5765" height="44.5765" fill="#F4F4F6"/>
<rect x="857.652" y="101.635" width="44.5765" height="44.5765" stroke="#4450E7" stroke-width="0.445765"/>
<path d="M879.7 132.873C877.969 132.873 876.505 132.465 875.306 131.65C874.125 130.835 873.243 129.744 872.66 128.38C872.094 126.999 871.812 125.468 871.812 123.787C871.812 121.823 872.178 120.15 872.91 118.769C873.659 117.371 874.674 116.314 875.955 115.599C877.237 114.883 878.66 114.525 880.224 114.525C881.505 114.525 882.662 114.758 883.694 115.224C884.742 115.674 885.591 116.339 886.24 117.221C886.889 118.103 887.255 119.152 887.338 120.367H885.516C885.383 119.035 884.826 118.004 883.844 117.271C882.862 116.539 881.622 116.173 880.124 116.173C878.893 116.173 877.786 116.456 876.804 117.022C875.822 117.571 875.04 118.411 874.458 119.543C873.892 120.675 873.609 122.064 873.609 123.712C873.609 125.176 873.825 126.483 874.258 127.631C874.707 128.763 875.398 129.661 876.33 130.327C877.278 130.993 878.46 131.325 879.875 131.325C881.04 131.325 882.046 131.068 882.895 130.552C883.76 130.019 884.418 129.303 884.867 128.405C885.316 127.506 885.541 126.491 885.541 125.359V124.436L886.29 125.259H879.85V123.662H887.289V132.424H885.691V129.403C885.158 130.518 884.376 131.375 883.344 131.974C882.313 132.574 881.098 132.873 879.7 132.873Z" fill="#090051"/>
<rect x="857.652" y="257.652" width="44.5765" height="44.5765" fill="#F4F4F6"/>
<rect x="857.652" y="257.652" width="44.5765" height="44.5765" stroke="#4450E7" stroke-width="0.445765"/>
<path d="M879.786 293.509C878.222 293.509 876.932 293.126 875.917 292.361C874.902 291.595 874.327 290.547 874.194 289.215H875.917C876.017 290.097 876.391 290.796 877.04 291.312C877.706 291.828 878.629 292.086 879.811 292.086C881.076 292.086 882.058 291.761 882.757 291.112C883.455 290.48 883.805 289.482 883.805 288.117V285.371C883.422 286.203 882.831 286.852 882.033 287.318C881.234 287.784 880.335 288.017 879.337 288.017C878.305 288.017 877.373 287.792 876.541 287.343C875.709 286.877 875.043 286.186 874.544 285.271C874.061 284.339 873.82 283.224 873.82 281.926C873.82 280.578 874.069 279.438 874.569 278.506C875.085 277.574 875.767 276.884 876.616 276.434C877.481 275.968 878.43 275.735 879.461 275.735C880.527 275.735 881.425 275.968 882.157 276.434C882.906 276.884 883.455 277.458 883.805 278.157V275.985H885.453V287.967C885.453 289.182 885.211 290.197 884.729 291.013C884.263 291.845 883.605 292.469 882.757 292.885C881.908 293.301 880.918 293.509 879.786 293.509ZM879.611 286.494C880.776 286.494 881.758 286.12 882.557 285.371C883.356 284.605 883.755 283.457 883.755 281.926C883.755 280.395 883.364 279.238 882.582 278.456C881.816 277.657 880.851 277.258 879.686 277.258C878.488 277.258 877.498 277.657 876.716 278.456C875.933 279.255 875.542 280.412 875.542 281.926C875.542 283.391 875.925 284.522 876.691 285.321C877.456 286.103 878.43 286.494 879.611 286.494Z" fill="#090051"/>
<rect x="857.652" y="413.672" width="44.5765" height="44.5765" fill="#F4F4F6"/>
<rect x="857.652" y="413.672" width="44.5765" height="44.5765" stroke="#4450E7" stroke-width="0.445765"/>
<path d="M880.32 444.736C879.138 444.736 878.048 444.453 877.05 443.887C876.068 443.304 875.269 442.364 874.653 441.066C874.054 439.751 873.755 438.037 873.755 435.924C873.755 433.644 874.104 431.838 874.803 430.507C875.519 429.175 876.384 428.26 877.399 427.761C878.415 427.245 879.471 426.987 880.57 426.987C881.984 426.987 883.174 427.37 884.139 428.135C885.105 428.884 885.637 430.007 885.737 431.505H884.015C883.948 430.54 883.598 429.791 882.966 429.259C882.35 428.726 881.502 428.46 880.42 428.46C879.272 428.46 878.298 428.818 877.499 429.533C876.717 430.232 876.143 431.239 875.777 432.554C875.427 433.852 875.327 435.391 875.477 437.172C875.827 435.94 876.476 435.008 877.424 434.376C878.373 433.727 879.48 433.402 880.744 433.402C881.876 433.402 882.841 433.652 883.64 434.151C884.456 434.634 885.071 435.291 885.487 436.123C885.92 436.955 886.136 437.871 886.136 438.869C886.136 439.918 885.903 440.891 885.437 441.79C884.988 442.689 884.322 443.404 883.44 443.937C882.558 444.469 881.518 444.736 880.32 444.736ZM880.27 443.238C881.152 443.238 881.901 443.038 882.517 442.639C883.149 442.239 883.623 441.715 883.94 441.066C884.272 440.417 884.439 439.71 884.439 438.944C884.439 437.796 884.089 436.839 883.39 436.073C882.691 435.308 881.718 434.925 880.47 434.925C879.588 434.925 878.814 435.125 878.148 435.524C877.499 435.907 877 436.423 876.65 437.072C876.301 437.704 876.126 438.387 876.126 439.119C876.126 439.818 876.284 440.484 876.601 441.116C876.933 441.748 877.408 442.264 878.023 442.664C878.656 443.046 879.405 443.238 880.27 443.238Z" fill="#090051"/>
<rect x="857.652" y="146.211" width="44.5765" height="44.5765" fill="#F4F4F6"/>
<rect x="857.652" y="146.211" width="44.5765" height="44.5765" stroke="#4450E7" stroke-width="0.445765"/>
<path d="M882.841 176.051L878.871 170.21H880.819L884.114 175.278L887.384 180.045H885.462L882.841 176.051ZM879.945 177.449C878.131 177.449 876.583 177.025 875.302 176.176C874.037 175.327 873.08 174.204 872.431 172.806C871.799 171.408 871.482 169.894 871.482 168.263C871.482 166.632 871.799 165.126 872.431 163.745C873.08 162.347 874.037 161.223 875.302 160.375C876.583 159.526 878.131 159.102 879.945 159.102C881.742 159.102 883.282 159.526 884.563 160.375C885.844 161.223 886.801 162.347 887.434 163.745C888.083 165.126 888.407 166.632 888.407 168.263C888.407 169.894 888.083 171.408 887.434 172.806C886.785 174.204 885.819 175.327 884.538 176.176C883.273 177.025 881.742 177.449 879.945 177.449ZM879.945 175.802C881.376 175.802 882.591 175.461 883.589 174.778C884.605 174.096 885.354 173.181 885.836 172.032C886.335 170.884 886.585 169.628 886.585 168.263C886.585 166.898 886.335 165.642 885.836 164.494C885.354 163.345 884.605 162.438 883.589 161.773C882.591 161.09 881.376 160.749 879.945 160.749C878.497 160.749 877.274 161.09 876.275 161.773C875.277 162.438 874.528 163.345 874.029 164.494C873.529 165.642 873.28 166.898 873.28 168.263C873.28 169.628 873.529 170.884 874.029 172.032C874.528 173.181 875.277 174.096 876.275 174.778C877.274 175.461 878.497 175.802 879.945 175.802Z" fill="#090051"/>
<rect x="857.652" y="302.23" width="44.5765" height="44.5765" fill="#F4F4F6"/>
<rect x="857.652" y="302.23" width="44.5765" height="44.5765" stroke="#4450E7" stroke-width="0.445765"/>
<path d="M883.704 330.299C883.354 331.097 882.814 331.755 882.081 332.271C881.349 332.77 880.425 333.02 879.31 333.02C878.262 333.02 877.322 332.795 876.49 332.346C875.658 331.88 874.992 331.164 874.493 330.199C873.993 329.233 873.744 328.044 873.744 326.629C873.744 325.214 873.993 324.033 874.493 323.084C874.992 322.136 875.666 321.437 876.515 320.987C877.363 320.538 878.304 320.313 879.335 320.313C880.45 320.313 881.374 320.555 882.106 321.037C882.839 321.503 883.379 322.144 883.729 322.96V320.563H885.401V337.812H883.704V330.299ZM879.51 331.447C880.309 331.447 881.016 331.272 881.632 330.923C882.248 330.573 882.739 330.041 883.105 329.325C883.471 328.609 883.654 327.702 883.654 326.604C883.654 324.99 883.263 323.792 882.481 323.009C881.715 322.227 880.725 321.836 879.51 321.836C878.312 321.836 877.338 322.236 876.59 323.034C875.857 323.817 875.491 325.006 875.491 326.604C875.491 328.185 875.857 329.392 876.59 330.224C877.338 331.039 878.312 331.447 879.51 331.447Z" fill="#090051"/>
<rect x="902.229" y="101.635" width="44.5765" height="44.5765" fill="#F4F4F6"/>
<rect x="902.229" y="101.635" width="44.5765" height="44.5765" stroke="#4450E7" stroke-width="0.445765"/>
<path d="M917.945 114.95H919.667V122.813H929.353V114.95H931.1V132.424H929.353V124.461H919.667V132.424H917.945V114.95Z" fill="#090051"/>
<rect x="902.229" y="257.652" width="44.5765" height="44.5765" fill="#F4F4F6"/>
<rect x="902.229" y="257.652" width="44.5765" height="44.5765" stroke="#4450E7" stroke-width="0.445765"/>
<path d="M919.377 270.693H921.049V278.556C921.432 277.691 922.006 277.008 922.772 276.509C923.537 275.993 924.478 275.735 925.593 275.735C926.941 275.735 927.973 276.11 928.688 276.859C929.42 277.608 929.786 278.656 929.786 280.004V288.441H928.089V280.279C928.089 279.297 927.823 278.548 927.29 278.032C926.758 277.499 926.042 277.233 925.143 277.233C924.378 277.233 923.679 277.424 923.046 277.807C922.431 278.173 921.94 278.714 921.574 279.43C921.224 280.129 921.049 280.961 921.049 281.926V288.441H919.377V270.693Z" fill="#090051"/>
<rect x="902.229" y="413.672" width="44.5765" height="44.5765" fill="#F4F4F6"/>
<rect x="902.229" y="413.672" width="44.5765" height="44.5765" stroke="#4450E7" stroke-width="0.445765"/>
<path d="M928.991 428.934H918.257L918.257 427.286H930.688V428.834L923.349 444.461H921.577L928.991 428.934Z" fill="#090051"/>
<rect x="902.229" y="146.211" width="44.5765" height="44.5765" fill="#F4F4F6"/>
<rect x="902.229" y="146.211" width="44.5765" height="44.5765" stroke="#4450E7" stroke-width="0.445765"/>
<path d="M918.688 159.526H925.827C926.942 159.526 927.899 159.751 928.698 160.2C929.497 160.649 930.096 161.24 930.495 161.972C930.895 162.705 931.095 163.487 931.095 164.319C931.095 165.5 930.745 166.549 930.046 167.464C929.364 168.379 928.399 168.979 927.15 169.262L931.968 177H929.921L925.278 169.461H920.41V177H918.688V159.526ZM925.403 167.889C926.618 167.889 927.566 167.581 928.249 166.965C928.931 166.349 929.272 165.517 929.272 164.469C929.272 163.47 928.948 162.671 928.299 162.072C927.666 161.473 926.743 161.174 925.528 161.174H920.41V167.889H925.403Z" fill="#090051"/>
<rect x="902.229" y="302.23" width="44.5765" height="44.5765" fill="#F4F4F6"/>
<rect x="902.229" y="302.23" width="44.5765" height="44.5765" stroke="#4450E7" stroke-width="0.445765"/>
<path d="M922.156 320.563H923.804V323.059C924.103 322.211 924.561 321.562 925.177 321.112C925.809 320.646 926.608 320.413 927.573 320.413H928.372V322.036H927.648C926.333 322.036 925.368 322.46 924.752 323.309C924.136 324.158 923.829 325.314 923.829 326.779V333.02H922.156V320.563Z" fill="#090051"/>
<rect x="946.805" y="101.635" width="44.5765" height="44.5765" fill="#F4F4F6"/>
<rect x="946.805" y="101.635" width="44.5765" height="44.5765" stroke="#4450E7" stroke-width="0.445765"/>
<path d="M968.228 114.95H969.95V132.424H968.228V114.95Z" fill="#090051"/>
<rect x="946.805" y="257.652" width="44.5765" height="44.5765" fill="#F4F4F6"/>
<rect x="946.805" y="257.652" width="44.5765" height="44.5765" stroke="#4450E7" stroke-width="0.445765"/>
<path d="M968.255 275.985H969.953V288.441H968.255L968.255 275.985ZM969.104 273.389C968.705 273.389 968.372 273.264 968.105 273.014C967.856 272.748 967.731 272.415 967.731 272.016C967.731 271.633 967.856 271.317 968.105 271.067C968.372 270.801 968.705 270.668 969.104 270.668C969.487 270.668 969.803 270.801 970.053 271.067C970.319 271.317 970.452 271.633 970.452 272.016C970.452 272.415 970.319 272.748 970.053 273.014C969.803 273.264 969.487 273.389 969.104 273.389Z" fill="#090051"/>
<rect x="946.805" y="413.672" width="44.5765" height="44.5765" fill="#F4F4F6"/>
<rect x="946.805" y="413.672" width="44.5765" height="44.5765" stroke="#4450E7" stroke-width="0.445765"/>
<path d="M969.098 444.736C967.251 444.736 965.803 444.319 964.755 443.487C963.723 442.639 963.207 441.457 963.207 439.943C963.207 438.761 963.523 437.796 964.156 437.047C964.788 436.281 965.662 435.774 966.777 435.524C965.828 435.241 965.063 434.775 964.48 434.126C963.914 433.477 963.632 432.604 963.632 431.505C963.632 429.991 964.139 428.859 965.154 428.11C966.186 427.361 967.501 426.987 969.098 426.987C970.696 426.987 972.002 427.361 973.018 428.11C974.049 428.859 974.565 429.991 974.565 431.505C974.565 432.604 974.274 433.477 973.692 434.126C973.126 434.775 972.369 435.241 971.42 435.524C972.535 435.774 973.409 436.281 974.041 437.047C974.69 437.796 975.015 438.761 975.015 439.943C975.015 441.457 974.49 442.639 973.442 443.487C972.393 444.319 970.946 444.736 969.098 444.736ZM969.098 443.188C970.496 443.188 971.536 442.888 972.219 442.289C972.918 441.69 973.267 440.85 973.267 439.768C973.267 438.67 972.901 437.804 972.169 437.172C971.453 436.539 970.43 436.223 969.098 436.223C967.784 436.223 966.76 436.539 966.028 437.172C965.296 437.804 964.93 438.67 964.93 439.768C964.93 440.866 965.279 441.715 965.978 442.314C966.677 442.897 967.717 443.188 969.098 443.188ZM969.098 434.725C970.263 434.725 971.179 434.443 971.844 433.877C972.51 433.311 972.843 432.554 972.843 431.605C972.843 430.64 972.535 429.891 971.919 429.358C971.32 428.809 970.38 428.535 969.098 428.535C967.817 428.535 966.868 428.809 966.253 429.358C965.654 429.891 965.354 430.64 965.354 431.605C965.354 432.554 965.687 433.311 966.352 433.877C967.018 434.443 967.933 434.725 969.098 434.725Z" fill="#090051"/>
<rect x="946.805" y="146.211" width="44.5765" height="44.5765" fill="#F4F4F6"/>
<rect x="946.805" y="146.211" width="44.5765" height="44.5765" stroke="#4450E7" stroke-width="0.445765"/>
<path d="M969.494 177.449C968.212 177.449 967.064 177.208 966.049 176.725C965.034 176.226 964.235 175.527 963.653 174.629C963.07 173.73 962.762 172.69 962.729 171.508H964.526C964.609 172.49 964.876 173.305 965.325 173.955C965.791 174.604 966.39 175.086 967.122 175.402C967.855 175.702 968.67 175.852 969.569 175.852C970.817 175.852 971.807 175.577 972.539 175.028C973.272 174.462 973.638 173.672 973.638 172.656C973.638 172.007 973.496 171.475 973.213 171.059C972.93 170.626 972.556 170.285 972.09 170.035C971.624 169.786 971.05 169.561 970.368 169.361L967.696 168.612C966.648 168.33 965.791 167.988 965.125 167.589C964.476 167.173 963.985 166.674 963.653 166.091C963.336 165.492 963.178 164.777 963.178 163.944C963.178 162.896 963.42 162.014 963.902 161.298C964.401 160.566 965.092 160.017 965.974 159.651C966.856 159.285 967.88 159.102 969.044 159.102C970.159 159.102 971.175 159.276 972.09 159.626C973.005 159.959 973.737 160.5 974.287 161.248C974.853 161.981 975.16 162.896 975.21 163.994H973.413C973.33 162.846 972.872 162.014 972.04 161.498C971.225 160.966 970.201 160.699 968.97 160.699C967.738 160.699 966.765 160.966 966.049 161.498C965.35 162.014 965 162.804 965 163.87C965 164.502 965.134 165.026 965.4 165.442C965.683 165.842 966.066 166.166 966.548 166.416C967.031 166.665 967.663 166.898 968.445 167.115L970.992 167.814C971.957 168.08 972.764 168.396 973.413 168.762C974.062 169.112 974.561 169.586 974.911 170.185C975.277 170.768 975.46 171.508 975.46 172.407C975.46 173.489 975.194 174.412 974.661 175.178C974.145 175.927 973.438 176.492 972.539 176.875C971.641 177.258 970.625 177.449 969.494 177.449Z" fill="#090051"/>
<rect x="946.805" y="302.23" width="44.5765" height="44.5765" fill="#F4F4F6"/>
<rect x="946.805" y="302.23" width="44.5765" height="44.5765" stroke="#4450E7" stroke-width="0.445765"/>
<path d="M969.457 333.294C967.992 333.294 966.744 332.953 965.713 332.271C964.697 331.572 964.132 330.557 964.015 329.225H965.737C965.871 330.14 966.287 330.806 966.986 331.222C967.701 331.638 968.558 331.846 969.557 331.846C970.472 331.846 971.188 331.68 971.704 331.347C972.236 331.014 972.502 330.507 972.502 329.824C972.502 329.209 972.278 328.751 971.828 328.451C971.379 328.135 970.713 327.886 969.831 327.702L968.084 327.353C967.335 327.203 966.686 327.012 966.137 326.779C965.588 326.529 965.138 326.171 964.789 325.705C964.439 325.223 964.265 324.615 964.265 323.883C964.265 322.702 964.689 321.811 965.538 321.212C966.387 320.613 967.51 320.313 968.908 320.313C970.372 320.313 971.529 320.63 972.378 321.262C973.243 321.894 973.734 322.801 973.85 323.983H972.128C972.045 323.217 971.712 322.652 971.129 322.286C970.547 321.903 969.781 321.711 968.833 321.711C967.884 321.711 967.169 321.886 966.686 322.236C966.203 322.585 965.962 323.084 965.962 323.733C965.962 324.382 966.187 324.865 966.636 325.181C967.085 325.481 967.743 325.722 968.608 325.905L970.206 326.23C971.021 326.396 971.704 326.587 972.253 326.804C972.819 327.02 973.276 327.353 973.626 327.802C973.992 328.252 974.175 328.851 974.175 329.6C974.175 330.814 973.726 331.738 972.827 332.37C971.945 332.986 970.822 333.294 969.457 333.294Z" fill="#090051"/>
<rect x="991.382" y="101.635" width="44.5765" height="44.5765" fill="#F4F4F6"/>
<rect x="991.382" y="101.635" width="44.5765" height="44.5765" stroke="#4450E7" stroke-width="0.445765"/>
<path d="M1012.95 132.873C1011.44 132.873 1010.24 132.457 1009.36 131.625C1008.48 130.793 1008.03 129.611 1008.03 128.08V126.632H1009.76V127.906C1009.76 129.021 1010.03 129.853 1010.58 130.402C1011.15 130.951 1011.95 131.226 1013 131.226C1014.03 131.226 1014.82 130.951 1015.37 130.402C1015.92 129.836 1016.2 128.946 1016.2 127.731V114.95H1017.94V127.631C1017.94 129.362 1017.5 130.668 1016.6 131.55C1015.7 132.432 1014.48 132.873 1012.95 132.873Z" fill="#090051"/>
<rect x="991.382" y="257.652" width="44.5765" height="44.5765" fill="#F4F4F6"/>
<rect x="991.382" y="257.652" width="44.5765" height="44.5765" stroke="#4450E7" stroke-width="0.445765"/>
<path d="M1010.67 291.737H1011.57C1012.12 291.737 1012.5 291.603 1012.7 291.337C1012.91 291.071 1013.02 290.638 1013.02 290.039V275.985H1014.72V289.989C1014.72 291.204 1014.47 292.044 1013.97 292.51C1013.49 292.993 1012.78 293.234 1011.85 293.234H1010.67V291.737ZM1013.87 273.389C1013.49 273.389 1013.16 273.264 1012.9 273.014C1012.65 272.748 1012.52 272.415 1012.52 272.016C1012.52 271.633 1012.65 271.317 1012.9 271.067C1013.16 270.801 1013.49 270.668 1013.87 270.668C1014.27 270.668 1014.59 270.801 1014.84 271.067C1015.09 271.317 1015.22 271.633 1015.22 272.016C1015.22 272.415 1015.09 272.748 1014.84 273.014C1014.59 273.264 1014.27 273.389 1013.87 273.389Z" fill="#090051"/>
<rect x="991.382" y="413.672" width="44.5765" height="44.5765" fill="#F4F4F6"/>
<rect x="991.382" y="413.672" width="44.5765" height="44.5765" stroke="#4450E7" stroke-width="0.445765"/>
<path d="M1013.28 444.736C1011.84 444.736 1010.64 444.353 1009.66 443.587C1008.67 442.822 1008.08 441.698 1007.86 440.217H1009.61C1009.79 441.182 1010.2 441.931 1010.83 442.464C1011.46 442.996 1012.33 443.263 1013.43 443.263C1014.59 443.263 1015.55 442.922 1016.3 442.239C1017.05 441.54 1017.57 440.542 1017.87 439.244C1018.19 437.929 1018.28 436.365 1018.14 434.551C1017.78 435.782 1017.12 436.722 1016.17 437.371C1015.22 438.004 1014.12 438.32 1012.85 438.32C1011.72 438.32 1010.75 438.079 1009.93 437.596C1009.13 437.097 1008.52 436.431 1008.11 435.599C1007.69 434.767 1007.48 433.852 1007.48 432.853C1007.48 431.805 1007.71 430.831 1008.16 429.933C1008.62 429.034 1009.3 428.318 1010.18 427.786C1011.08 427.253 1012.13 426.987 1013.33 426.987C1014.51 426.987 1015.59 427.278 1016.57 427.861C1017.55 428.426 1018.34 429.375 1018.94 430.706C1019.56 432.021 1019.87 433.752 1019.87 435.899C1019.87 438.162 1019.53 439.951 1018.87 441.266C1018.22 442.564 1017.4 443.471 1016.42 443.987C1015.44 444.486 1014.39 444.736 1013.28 444.736ZM1013.13 436.797C1014.01 436.797 1014.77 436.606 1015.42 436.223C1016.09 435.824 1016.6 435.308 1016.95 434.675C1017.29 434.026 1017.47 433.328 1017.47 432.579C1017.47 431.88 1017.3 431.222 1016.97 430.607C1016.65 429.974 1016.19 429.467 1015.57 429.084C1014.96 428.684 1014.21 428.485 1013.33 428.485C1012.46 428.485 1011.71 428.684 1011.08 429.084C1010.45 429.483 1009.96 430.007 1009.63 430.656C1009.31 431.306 1009.16 432.013 1009.16 432.778C1009.16 433.927 1009.51 434.884 1010.21 435.649C1010.9 436.415 1011.88 436.797 1013.13 436.797Z" fill="#090051"/>
<rect x="991.382" y="146.211" width="44.5765" height="44.5765" fill="#F4F4F6"/>
<rect x="991.382" y="146.211" width="44.5765" height="44.5765" stroke="#4450E7" stroke-width="0.445765"/>
<path d="M1012.79 161.174H1006.85V159.526H1020.5V161.174H1014.53V177H1012.79V161.174Z" fill="#090051"/>
<rect x="991.382" y="302.23" width="44.5765" height="44.5765" fill="#F4F4F6"/>
<rect x="991.382" y="302.23" width="44.5765" height="44.5765" stroke="#4450E7" stroke-width="0.445765"/>
<path d="M1015.21 333.02C1014.25 333.02 1013.5 332.77 1012.97 332.271C1012.44 331.755 1012.17 330.989 1012.17 329.974V322.036H1009.72V320.563H1012.17V316.968L1013.87 316.494V320.563H1016.86V322.036H1013.87V329.724C1013.87 330.34 1013.99 330.798 1014.24 331.097C1014.51 331.38 1014.94 331.522 1015.54 331.522H1017.14V333.02H1015.21Z" fill="#090051"/>
<foreignObject x="588.856" y="35.2154" width="126.216" height="31.3972"><div xmlns="http://www.w3.org/1999/xhtml" style="backdrop-filter:blur(0.67px);clip-path:url(#bgblur_0_2003_2446_clip_path);height:100%;width:100%"></div></foreignObject><g data-figma-bg-blur-radius="1.3373">
<rect x="590.443" y="36.8027" width="123.041" height="28.2221" rx="14.1111" fill="url(#paint2_linear_2003_2446)"/>
<rect x="590.443" y="36.8027" width="123.041" height="28.2221" rx="14.1111" stroke="#4450E7" stroke-width="0.5"/>
<g filter="url(#filter1_d_2003_2446)">
<path d="M607.742 46.0849H609.778L612.755 54.2712L615.717 46.0849H617.753V55.9141H616.405V47.9244L613.485 55.9141H612.024L609.104 47.9244V55.9141H607.742V46.0849ZM623.124 56.0685C622.45 56.0685 621.856 55.9328 621.341 55.6613C620.826 55.3898 620.419 54.9826 620.119 54.4397C619.829 53.8874 619.684 53.2134 619.684 52.4177C619.684 51.6875 619.825 51.0369 620.105 50.4659C620.386 49.8949 620.784 49.4502 621.299 49.132C621.814 48.8137 622.422 48.6546 623.124 48.6546C623.817 48.6546 624.402 48.8137 624.88 49.132C625.366 49.4502 625.727 49.8902 625.961 50.4519C626.204 51.0135 626.326 51.6735 626.326 52.4317V52.7547H620.414V51.6454H624.95C624.912 51.271 624.823 50.948 624.683 50.6765C624.543 50.4051 624.341 50.1991 624.079 50.0587C623.826 49.9183 623.508 49.8481 623.124 49.8481C622.666 49.8481 622.277 49.9511 621.959 50.157C621.641 50.3629 621.402 50.6578 621.243 51.0416C621.093 51.4254 621.018 51.8748 621.018 52.3896C621.018 52.9513 621.102 53.4193 621.271 53.7938C621.439 54.1589 621.683 54.4303 622.001 54.6082C622.319 54.7861 622.703 54.875 623.152 54.875C623.583 54.875 623.939 54.7907 624.22 54.6222C624.5 54.4444 624.72 54.1682 624.88 53.7938H626.27C626.054 54.5427 625.675 55.109 625.132 55.4928C624.589 55.8766 623.92 56.0685 623.124 56.0685ZM630.783 56.0685C629.932 56.0685 629.197 55.8719 628.579 55.4788C627.961 55.0856 627.615 54.5005 627.54 53.7236H628.93C629.014 54.1542 629.225 54.4678 629.562 54.6644C629.908 54.8609 630.339 54.9592 630.854 54.9592C631.312 54.9592 631.663 54.8843 631.907 54.7346C632.159 54.5754 632.286 54.3414 632.286 54.0325C632.286 53.7329 632.169 53.5129 631.935 53.3725C631.71 53.2321 631.373 53.1198 630.924 53.0355L629.969 52.853C629.529 52.7687 629.145 52.6564 628.818 52.516C628.499 52.3756 628.232 52.165 628.017 51.8841C627.811 51.6033 627.708 51.2382 627.708 50.7889C627.708 50.0962 627.956 49.5673 628.452 49.2022C628.958 48.8371 629.637 48.6546 630.489 48.6546C631.368 48.6546 632.071 48.8465 632.595 49.2303C633.119 49.6141 633.409 50.1664 633.465 50.8872H632.089C632.052 50.5034 631.888 50.2179 631.598 50.0306C631.308 49.834 630.919 49.7358 630.432 49.7358C629.983 49.7358 629.637 49.82 629.393 49.9885C629.159 50.1476 629.042 50.3817 629.042 50.6906C629.042 50.9901 629.155 51.2148 629.379 51.3646C629.604 51.5144 629.936 51.6314 630.376 51.7156L631.303 51.8841C631.78 51.9684 632.178 52.076 632.496 52.2071C632.824 52.3381 633.096 52.5394 633.311 52.8109C633.526 53.073 633.634 53.424 633.634 53.864C633.634 54.5848 633.362 55.1324 632.819 55.5069C632.286 55.8813 631.607 56.0685 630.783 56.0685ZM638.024 56.0685C637.172 56.0685 636.437 55.8719 635.819 55.4788C635.201 55.0856 634.855 54.5005 634.78 53.7236H636.17C636.254 54.1542 636.465 54.4678 636.802 54.6644C637.148 54.8609 637.579 54.9592 638.094 54.9592C638.552 54.9592 638.904 54.8843 639.147 54.7346C639.4 54.5754 639.526 54.3414 639.526 54.0325C639.526 53.7329 639.409 53.5129 639.175 53.3725C638.95 53.2321 638.613 53.1198 638.164 53.0355L637.209 52.853C636.769 52.7687 636.385 52.6564 636.058 52.516C635.739 52.3756 635.473 52.165 635.257 51.8841C635.051 51.6033 634.948 51.2382 634.948 50.7889C634.948 50.0962 635.197 49.5673 635.693 49.2022C636.198 48.8371 636.877 48.6546 637.729 48.6546C638.609 48.6546 639.311 48.8465 639.835 49.2303C640.359 49.6141 640.649 50.1664 640.706 50.8872H639.329C639.292 50.5034 639.128 50.2179 638.838 50.0306C638.548 49.834 638.159 49.7358 637.673 49.7358C637.223 49.7358 636.877 49.82 636.633 49.9885C636.399 50.1476 636.282 50.3817 636.282 50.6906C636.282 50.9901 636.395 51.2148 636.619 51.3646C636.844 51.5144 637.176 51.6314 637.616 51.7156L638.543 51.8841C639.021 51.9684 639.418 52.076 639.737 52.2071C640.064 52.3381 640.336 52.5394 640.551 52.8109C640.766 53.073 640.874 53.424 640.874 53.864C640.874 54.5848 640.603 55.1324 640.06 55.5069C639.526 55.8813 638.847 56.0685 638.024 56.0685ZM642.54 48.795H643.916V55.9141H642.54V48.795ZM643.228 47.6014C642.947 47.6014 642.713 47.5125 642.526 47.3346C642.348 47.1474 642.259 46.9134 642.259 46.6326C642.259 46.3517 642.348 46.1224 642.526 45.9445C642.713 45.7573 642.947 45.6637 643.228 45.6637C643.518 45.6637 643.752 45.7573 643.93 45.9445C644.108 46.1224 644.197 46.3517 644.197 46.6326C644.197 46.9134 644.108 47.1474 643.93 47.3346C643.752 47.5125 643.518 47.6014 643.228 47.6014ZM646.161 48.795H647.495V50.0587C647.71 49.6187 648.024 49.2771 648.436 49.0337C648.857 48.7809 649.367 48.6546 649.966 48.6546C650.752 48.6546 651.352 48.8745 651.763 49.3145C652.185 49.7545 652.395 50.3723 652.395 51.168V55.9141H651.019V51.3786C651.019 50.8918 650.883 50.5221 650.612 50.2693C650.341 50.0072 649.98 49.8762 649.531 49.8762C649.156 49.8762 648.815 49.9651 648.506 50.143C648.206 50.3115 647.967 50.5642 647.79 50.9012C647.621 51.2382 647.537 51.6361 647.537 52.0947V55.9141H646.161V48.795ZM656.462 56.0685C655.778 56.0685 655.217 55.8907 654.777 55.5349C654.337 55.1699 654.117 54.6503 654.117 53.9763C654.117 53.3023 654.323 52.8015 654.734 52.4739C655.156 52.1462 655.699 51.9403 656.363 51.856L657.978 51.6314C658.184 51.6033 658.357 51.5658 658.498 51.519C658.638 51.4629 658.746 51.3833 658.821 51.2803C658.905 51.168 658.947 51.0135 658.947 50.817C658.947 50.4706 658.825 50.2085 658.582 50.0306C658.338 49.8528 657.969 49.7638 657.473 49.7638C656.93 49.7638 656.504 49.8668 656.195 50.0728C655.895 50.2693 655.713 50.5595 655.647 50.9433H654.271C654.374 50.1851 654.706 49.6141 655.268 49.2303C655.839 48.8465 656.588 48.6546 657.515 48.6546C658.451 48.6546 659.153 48.8465 659.621 49.2303C660.089 49.6141 660.323 50.1991 660.323 50.9855V55.9141H659.031V54.5942C658.797 55.0528 658.465 55.4132 658.034 55.6754C657.604 55.9375 657.079 56.0685 656.462 56.0685ZM656.784 54.9031C657.178 54.9031 657.538 54.8188 657.866 54.6503C658.203 54.4818 658.465 54.2431 658.652 53.9342C658.849 53.6253 658.947 53.2742 658.947 52.8811V51.9543L659.284 52.193C659.059 52.3241 658.849 52.4224 658.652 52.4879C658.465 52.5534 658.184 52.6096 657.81 52.6564L656.827 52.7828C656.443 52.8296 656.125 52.9326 655.872 53.0917C655.619 53.2415 655.493 53.5036 655.493 53.878C655.493 54.215 655.61 54.4725 655.844 54.6503C656.078 54.8188 656.391 54.9031 656.784 54.9031ZM669.432 56.1668C668.702 56.1668 668.037 56.0264 667.438 55.7456C666.839 55.4647 666.362 55.0669 666.006 54.552C665.65 54.0278 665.463 53.41 665.444 52.6985H666.905C666.952 53.204 667.092 53.6206 667.326 53.9482C667.56 54.2759 667.86 54.5193 668.225 54.6784C668.59 54.8282 669.006 54.9031 669.474 54.9031C670.12 54.9031 670.616 54.772 670.963 54.5099C671.318 54.2384 671.496 53.8593 671.496 53.3725C671.496 53.0823 671.426 52.839 671.286 52.6424C671.155 52.4364 670.972 52.2726 670.738 52.1509C670.513 52.0292 670.237 51.9216 669.91 51.828L668.365 51.4067C667.757 51.2476 667.256 51.051 666.863 50.817C666.479 50.5829 666.189 50.2927 665.992 49.9464C665.805 49.6 665.711 49.1835 665.711 48.6967C665.711 48.0695 665.856 47.5453 666.147 47.124C666.446 46.6934 666.853 46.3751 667.368 46.1692C667.892 45.9539 668.496 45.8462 669.179 45.8462C669.844 45.8462 670.443 45.9539 670.977 46.1692C671.52 46.3751 671.955 46.6981 672.283 47.1381C672.62 47.578 672.802 48.121 672.83 48.7669H671.37C671.314 48.1865 671.084 47.7653 670.682 47.5031C670.279 47.241 669.76 47.11 669.123 47.11C668.496 47.11 668.014 47.2364 667.677 47.4891C667.34 47.7418 667.172 48.121 667.172 48.6265C667.172 48.9354 667.242 49.1928 667.382 49.3988C667.523 49.5953 667.714 49.7545 667.958 49.8762C668.201 49.9979 668.52 50.1102 668.913 50.2132L670.359 50.5923C670.93 50.7421 671.403 50.9199 671.777 51.1259C672.161 51.3318 672.456 51.6033 672.662 51.9403C672.868 52.2679 672.971 52.6845 672.971 53.19C672.971 53.8265 672.812 54.3695 672.493 54.8188C672.184 55.2681 671.763 55.6051 671.23 55.8298C670.696 56.0545 670.097 56.1668 669.432 56.1668ZM676.687 56.0685C676.004 56.0685 675.442 55.8907 675.002 55.5349C674.563 55.1699 674.343 54.6503 674.343 53.9763C674.343 53.3023 674.548 52.8015 674.96 52.4739C675.382 52.1462 675.925 51.9403 676.589 51.856L678.204 51.6314C678.41 51.6033 678.583 51.5658 678.724 51.519C678.864 51.4629 678.972 51.3833 679.046 51.2803C679.131 51.168 679.173 51.0135 679.173 50.817C679.173 50.4706 679.051 50.2085 678.808 50.0306C678.564 49.8528 678.195 49.7638 677.698 49.7638C677.156 49.7638 676.73 49.8668 676.421 50.0728C676.121 50.2693 675.939 50.5595 675.873 50.9433H674.497C674.6 50.1851 674.932 49.6141 675.494 49.2303C676.065 48.8465 676.814 48.6546 677.741 48.6546C678.677 48.6546 679.379 48.8465 679.847 49.2303C680.315 49.6141 680.549 50.1991 680.549 50.9855V55.9141H679.257V54.5942C679.023 55.0528 678.691 55.4132 678.26 55.6754C677.83 55.9375 677.305 56.0685 676.687 56.0685ZM677.01 54.9031C677.404 54.9031 677.764 54.8188 678.092 54.6503C678.429 54.4818 678.691 54.2431 678.878 53.9342C679.075 53.6253 679.173 53.2742 679.173 52.8811V51.9543L679.51 52.193C679.285 52.3241 679.075 52.4224 678.878 52.4879C678.691 52.5534 678.41 52.6096 678.035 52.6564L677.053 52.7828C676.669 52.8296 676.35 52.9326 676.098 53.0917C675.845 53.2415 675.719 53.5036 675.719 53.878C675.719 54.215 675.836 54.4725 676.07 54.6503C676.304 54.8188 676.617 54.9031 677.01 54.9031ZM682.746 48.795H684.08V50.0587C684.295 49.6187 684.609 49.2771 685.021 49.0337C685.442 48.7809 685.952 48.6546 686.551 48.6546C687.337 48.6546 687.936 48.8745 688.348 49.3145C688.77 49.7545 688.98 50.3723 688.98 51.168V55.9141H687.604V51.3786C687.604 50.8918 687.468 50.5221 687.197 50.2693C686.925 50.0072 686.565 49.8762 686.116 49.8762C685.741 49.8762 685.4 49.9651 685.091 50.143C684.791 50.3115 684.552 50.5642 684.375 50.9012C684.206 51.2382 684.122 51.6361 684.122 52.0947V55.9141H682.746V48.795ZM693.861 56.0685C693.009 56.0685 692.274 55.8719 691.656 55.4788C691.039 55.0856 690.692 54.5005 690.617 53.7236H692.007C692.092 54.1542 692.302 54.4678 692.639 54.6644C692.986 54.8609 693.416 54.9592 693.931 54.9592C694.39 54.9592 694.741 54.8843 694.984 54.7346C695.237 54.5754 695.363 54.3414 695.363 54.0325C695.363 53.7329 695.246 53.5129 695.012 53.3725C694.788 53.2321 694.451 53.1198 694.001 53.0355L693.046 52.853C692.607 52.7687 692.223 52.6564 691.895 52.516C691.577 52.3756 691.31 52.165 691.095 51.8841C690.889 51.6033 690.786 51.2382 690.786 50.7889C690.786 50.0962 691.034 49.5673 691.53 49.2022C692.035 48.8371 692.714 48.6546 693.566 48.6546C694.446 48.6546 695.148 48.8465 695.672 49.2303C696.196 49.6141 696.487 50.1664 696.543 50.8872H695.167C695.129 50.5034 694.966 50.2179 694.675 50.0306C694.385 49.834 693.997 49.7358 693.51 49.7358C693.061 49.7358 692.714 49.82 692.471 49.9885C692.237 50.1476 692.12 50.3817 692.12 50.6906C692.12 50.9901 692.232 51.2148 692.457 51.3646C692.681 51.5144 693.014 51.6314 693.454 51.7156L694.38 51.8841C694.858 51.9684 695.256 52.076 695.574 52.2071C695.902 52.3381 696.173 52.5394 696.388 52.8109C696.604 53.073 696.711 53.424 696.711 53.864C696.711 54.5848 696.44 55.1324 695.897 55.5069C695.363 55.8813 694.685 56.0685 693.861 56.0685Z" fill="#090051"/>
</g>
</g>
<foreignObject x="735.131" y="35.2154" width="115.216" height="31.3972"><div xmlns="http://www.w3.org/1999/xhtml" style="backdrop-filter:blur(0.67px);clip-path:url(#bgblur_1_2003_2446_clip_path);height:100%;width:100%"></div></foreignObject><g data-figma-bg-blur-radius="1.3373">
<rect x="736.718" y="36.8027" width="112.041" height="28.2221" rx="14.1111" fill="url(#paint3_linear_2003_2446)"/>
<rect x="736.718" y="36.8027" width="112.041" height="28.2221" rx="14.1111" stroke="#4450E7" stroke-width="0.5"/>
<g filter="url(#filter3_d_2003_2446)">
<path d="M753.174 46.0849H754.648L756.656 54.0325L758.889 46.0849H760.504L762.736 54.0325L764.758 46.0849H766.219L763.593 55.9141H761.992L759.703 48.0508L757.415 55.9141H755.8L753.174 46.0849ZM770.181 56.0685C769.507 56.0685 768.912 55.9328 768.398 55.6613C767.883 55.3898 767.476 54.9826 767.176 54.4397C766.886 53.8874 766.741 53.2134 766.741 52.4177C766.741 51.6875 766.881 51.0369 767.162 50.4659C767.443 49.8949 767.841 49.4502 768.355 49.132C768.87 48.8137 769.479 48.6546 770.181 48.6546C770.874 48.6546 771.459 48.8137 771.936 49.132C772.423 49.4502 772.783 49.8902 773.017 50.4519C773.261 51.0135 773.382 51.6735 773.382 52.4317V52.7547H767.471V51.6454H772.006C771.969 51.271 771.88 50.948 771.739 50.6765C771.599 50.4051 771.398 50.1991 771.136 50.0587C770.883 49.9183 770.565 49.8481 770.181 49.8481C769.722 49.8481 769.334 49.9511 769.015 50.157C768.697 50.3629 768.458 50.6578 768.299 51.0416C768.15 51.4254 768.075 51.8748 768.075 52.3896C768.075 52.9513 768.159 53.4193 768.327 53.7938C768.496 54.1589 768.739 54.4303 769.058 54.6082C769.376 54.7861 769.76 54.875 770.209 54.875C770.64 54.875 770.995 54.7907 771.276 54.6222C771.557 54.4444 771.777 54.1682 771.936 53.7938H773.326C773.111 54.5427 772.732 55.109 772.189 55.4928C771.646 55.8766 770.977 56.0685 770.181 56.0685ZM775.116 48.795H776.492V55.9141H775.116V48.795ZM775.804 47.6014C775.523 47.6014 775.289 47.5125 775.102 47.3346C774.924 47.1474 774.835 46.9134 774.835 46.6326C774.835 46.3517 774.924 46.1224 775.102 45.9445C775.289 45.7573 775.523 45.6637 775.804 45.6637C776.094 45.6637 776.328 45.7573 776.506 45.9445C776.684 46.1224 776.773 46.3517 776.773 46.6326C776.773 46.9134 776.684 47.1474 776.506 47.3346C776.328 47.5125 776.094 47.6014 775.804 47.6014ZM781.826 58.7645C780.909 58.7645 780.146 58.5445 779.537 58.1046C778.929 57.6646 778.578 57.0514 778.484 56.2651H779.86C779.926 56.6864 780.122 57.0233 780.45 57.2761C780.787 57.5288 781.25 57.6552 781.84 57.6552C782.505 57.6552 783.01 57.4914 783.357 57.1638C783.712 56.8455 783.89 56.3494 783.89 55.6754V54.3274C783.684 54.7673 783.361 55.1043 782.921 55.3384C782.481 55.563 781.999 55.6754 781.475 55.6754C780.895 55.6754 780.366 55.5443 779.888 55.2822C779.411 55.0201 779.027 54.6316 778.737 54.1167C778.447 53.5925 778.302 52.956 778.302 52.2071C778.302 51.4301 778.451 50.7748 778.751 50.2413C779.051 49.7077 779.448 49.3098 779.944 49.0477C780.441 48.7856 780.988 48.6546 781.587 48.6546C782.14 48.6546 782.612 48.7716 783.006 49.0056C783.408 49.2303 783.703 49.5158 783.89 49.8621V48.795H785.224V55.5349C785.224 56.2464 785.079 56.8408 784.789 57.3182C784.499 57.805 784.096 58.1654 783.581 58.3994C783.076 58.6428 782.491 58.7645 781.826 58.7645ZM781.77 54.4818C782.35 54.4818 782.842 54.2946 783.244 53.9202C783.656 53.5457 783.862 52.9794 783.862 52.2211C783.862 51.4629 783.666 50.8872 783.272 50.494C782.879 50.1008 782.392 49.9043 781.812 49.9043C781.213 49.9043 780.712 50.1008 780.31 50.494C779.907 50.8872 779.706 51.4582 779.706 52.2071C779.706 52.9372 779.898 53.4989 780.281 53.8921C780.675 54.2852 781.171 54.4818 781.77 54.4818ZM787.431 45.9305H788.807V50.0166C789.022 49.5766 789.336 49.2396 789.748 49.0056C790.159 48.7716 790.656 48.6546 791.236 48.6546C792.022 48.6546 792.621 48.8745 793.033 49.3145C793.454 49.7545 793.665 50.3723 793.665 51.168V55.9141H792.289V51.3786C792.289 50.8918 792.153 50.5221 791.882 50.2693C791.61 50.0072 791.25 49.8762 790.801 49.8762C790.426 49.8762 790.085 49.9651 789.776 50.143C789.476 50.3115 789.237 50.5642 789.059 50.9012C788.891 51.2382 788.807 51.6361 788.807 52.0947V55.9141H787.431V45.9305ZM798.209 55.9141C797.582 55.9141 797.104 55.7549 796.777 55.4366C796.458 55.1184 796.299 54.6456 796.299 54.0184V49.9885H794.965V48.795H796.299V46.9415L797.675 46.5624V48.795H799.276V49.9885H797.675V53.8219C797.675 54.1308 797.736 54.3554 797.858 54.4959C797.989 54.6363 798.204 54.7065 798.504 54.7065H799.43V55.9141H798.209ZM801.734 56.0685C801.444 56.0685 801.205 55.9796 801.018 55.8017C800.84 55.6145 800.751 55.3758 800.751 55.0856C800.751 54.8048 800.84 54.5754 801.018 54.3976C801.205 54.2103 801.444 54.1167 801.734 54.1167C802.015 54.1167 802.244 54.2103 802.422 54.3976C802.609 54.5754 802.703 54.8048 802.703 55.0856C802.703 55.3758 802.609 55.6145 802.422 55.8017C802.244 55.9796 802.015 56.0685 801.734 56.0685ZM801.734 51.0838C801.444 51.0838 801.205 50.9948 801.018 50.817C800.84 50.6297 800.751 50.391 800.751 50.1008C800.751 49.82 800.84 49.5907 801.018 49.4128C801.205 49.2256 801.444 49.132 801.734 49.132C802.015 49.132 802.244 49.2256 802.422 49.4128C802.609 49.5907 802.703 49.82 802.703 50.1008C802.703 50.391 802.609 50.6297 802.422 50.817C802.244 50.9948 802.015 51.0838 801.734 51.0838ZM812.22 53.7938H807.432V52.5581L811.841 46.2534H813.596V52.502H815.225V53.8078H813.596V55.9141H812.22V53.7938ZM812.22 52.502V47.6857L808.85 52.502H812.22ZM819.741 56.0685C818.973 56.0685 818.337 55.886 817.831 55.5209C817.335 55.1558 816.961 54.6082 816.708 53.878C816.455 53.1385 816.329 52.2071 816.329 51.0838C816.329 49.9511 816.455 49.015 816.708 48.2754C816.961 47.5359 817.335 46.9883 817.831 46.6326C818.337 46.2675 818.973 46.0849 819.741 46.0849C820.508 46.0849 821.145 46.2675 821.65 46.6326C822.156 46.9976 822.535 47.5499 822.788 48.2895C823.041 49.0196 823.167 49.9464 823.167 51.0697C823.167 52.2024 823.041 53.1385 822.788 53.878C822.535 54.6176 822.156 55.1699 821.65 55.5349C821.145 55.8907 820.508 56.0685 819.741 56.0685ZM819.741 54.8609C820.256 54.8609 820.658 54.7205 820.948 54.4397C821.239 54.1495 821.445 53.7329 821.566 53.19C821.697 52.6377 821.763 51.9309 821.763 51.0697C821.763 50.2366 821.697 49.5485 821.566 49.0056C821.445 48.4533 821.234 48.032 820.934 47.7418C820.644 47.4423 820.246 47.2925 819.741 47.2925C819.235 47.2925 818.837 47.4376 818.547 47.7278C818.257 48.0086 818.046 48.4252 817.915 48.9775C817.794 49.5205 817.733 50.2225 817.733 51.0838C817.733 51.9169 817.794 52.6096 817.915 53.1619C818.046 53.7048 818.257 54.1261 818.547 54.4257C818.847 54.7158 819.245 54.8609 819.741 54.8609ZM828.16 56.0685C827.393 56.0685 826.756 55.886 826.251 55.5209C825.754 55.1558 825.38 54.6082 825.127 53.878C824.875 53.1385 824.748 52.2071 824.748 51.0838C824.748 49.9511 824.875 49.015 825.127 48.2754C825.38 47.5359 825.754 46.9883 826.251 46.6326C826.756 46.2675 827.393 46.0849 828.16 46.0849C828.928 46.0849 829.564 46.2675 830.07 46.6326C830.575 46.9976 830.955 47.5499 831.207 48.2895C831.46 49.0196 831.586 49.9464 831.586 51.0697C831.586 52.2024 831.46 53.1385 831.207 53.878C830.955 54.6176 830.575 55.1699 830.07 55.5349C829.564 55.8907 828.928 56.0685 828.16 56.0685ZM828.16 54.8609C828.675 54.8609 829.078 54.7205 829.368 54.4397C829.658 54.1495 829.864 53.7329 829.986 53.19C830.117 52.6377 830.182 51.9309 830.182 51.0697C830.182 50.2366 830.117 49.5485 829.986 49.0056C829.864 48.4533 829.653 48.032 829.354 47.7418C829.064 47.4423 828.666 47.2925 828.16 47.2925C827.655 47.2925 827.257 47.4376 826.967 47.7278C826.677 48.0086 826.466 48.4252 826.335 48.9775C826.213 49.5205 826.152 50.2225 826.152 51.0838C826.152 51.9169 826.213 52.6096 826.335 53.1619C826.466 53.7048 826.677 54.1261 826.967 54.4257C827.266 54.7158 827.664 54.8609 828.16 54.8609Z" fill="#090051"/>
</g>
</g>
<foreignObject x="870.406" y="35.2154" width="99.2156" height="31.3972"><div xmlns="http://www.w3.org/1999/xhtml" style="backdrop-filter:blur(0.67px);clip-path:url(#bgblur_2_2003_2446_clip_path);height:100%;width:100%"></div></foreignObject><g data-figma-bg-blur-radius="1.3373">
<rect x="871.993" y="36.8027" width="96.0409" height="28.2221" rx="14.1111" fill="url(#paint4_linear_2003_2446)"/>
<rect x="871.993" y="36.8027" width="96.0409" height="28.2221" rx="14.1111" stroke="#4450E7" stroke-width="0.5"/>
<g filter="url(#filter5_d_2003_2446)">
<path d="M888.449 46.0849H889.923L891.931 54.0325L894.164 46.0849H895.779L898.011 54.0325L900.033 46.0849H901.494L898.868 55.9141H897.267L894.978 48.0508L892.69 55.9141H891.075L888.449 46.0849ZM903.027 48.795H904.403V55.9141H903.027V48.795ZM903.715 47.6014C903.434 47.6014 903.2 47.5125 903.013 47.3346C902.835 47.1474 902.746 46.9134 902.746 46.6326C902.746 46.3517 902.835 46.1224 903.013 45.9445C903.2 45.7573 903.434 45.6637 903.715 45.6637C904.005 45.6637 904.239 45.7573 904.417 45.9445C904.595 46.1224 904.684 46.3517 904.684 46.6326C904.684 46.9134 904.595 47.1474 904.417 47.3346C904.239 47.5125 904.005 47.6014 903.715 47.6014ZM909.372 56.0685C908.67 56.0685 908.076 55.9 907.589 55.563C907.112 55.226 906.751 54.7814 906.508 54.2291C906.274 53.6674 906.157 53.0496 906.157 52.3756C906.157 51.6922 906.278 51.0697 906.522 50.508C906.765 49.9464 907.13 49.497 907.617 49.16C908.104 48.8231 908.698 48.6546 909.4 48.6546C909.971 48.6546 910.449 48.7669 910.833 48.9916C911.226 49.2162 911.525 49.5158 911.731 49.8902V45.9305H913.093V55.9141H911.787V54.5801C911.61 55.0294 911.324 55.3898 910.931 55.6613C910.538 55.9328 910.018 56.0685 909.372 56.0685ZM909.611 54.8048C910.088 54.8048 910.482 54.6924 910.79 54.4678C911.109 54.2431 911.343 53.9436 911.493 53.5691C911.652 53.1947 911.731 52.7734 911.731 52.3054C911.731 51.6033 911.553 51.0276 911.198 50.5783C910.842 50.1196 910.318 49.8902 909.625 49.8902C909.157 49.8902 908.764 49.9979 908.446 50.2132C908.137 50.4285 907.912 50.7233 907.772 51.0978C907.631 51.4722 907.561 51.8888 907.561 52.3475C907.561 53.0683 907.729 53.658 908.066 54.1167C908.403 54.5754 908.918 54.8048 909.611 54.8048ZM917.714 55.9141C917.087 55.9141 916.61 55.7549 916.282 55.4366C915.964 55.1184 915.805 54.6456 915.805 54.0184V49.9885H914.471V48.795H915.805V46.9415L917.181 46.5624V48.795H918.781V49.9885H917.181V53.8219C917.181 54.1308 917.242 54.3554 917.363 54.4959C917.494 54.6363 917.71 54.7065 918.009 54.7065H918.936V55.9141H917.714ZM920.608 45.9305H921.984V50.0166C922.199 49.5766 922.513 49.2396 922.924 49.0056C923.336 48.7716 923.832 48.6546 924.413 48.6546C925.199 48.6546 925.798 48.8745 926.21 49.3145C926.631 49.7545 926.842 50.3723 926.842 51.168V55.9141H925.466V51.3786C925.466 50.8918 925.33 50.5221 925.059 50.2693C924.787 50.0072 924.427 49.8762 923.978 49.8762C923.603 49.8762 923.261 49.9651 922.952 50.143C922.653 50.3115 922.414 50.5642 922.236 50.9012C922.068 51.2382 921.984 51.6361 921.984 52.0947V55.9141H920.608V45.9305ZM929.673 56.0685C929.382 56.0685 929.144 55.9796 928.956 55.8017C928.779 55.6145 928.69 55.3758 928.69 55.0856C928.69 54.8048 928.779 54.5754 928.956 54.3976C929.144 54.2103 929.382 54.1167 929.673 54.1167C929.953 54.1167 930.183 54.2103 930.361 54.3976C930.548 54.5754 930.641 54.8048 930.641 55.0856C930.641 55.3758 930.548 55.6145 930.361 55.8017C930.183 55.9796 929.953 56.0685 929.673 56.0685ZM929.673 51.0838C929.382 51.0838 929.144 50.9948 928.956 50.817C928.779 50.6297 928.69 50.391 928.69 50.1008C928.69 49.82 928.779 49.5907 928.956 49.4128C929.144 49.2256 929.382 49.132 929.673 49.132C929.953 49.132 930.183 49.2256 930.361 49.4128C930.548 49.5907 930.641 49.82 930.641 50.1008C930.641 50.391 930.548 50.6297 930.361 50.817C930.183 50.9948 929.953 51.0838 929.673 51.0838ZM939.26 56.0685C938.193 56.0685 937.35 55.8345 936.733 55.3664C936.115 54.889 935.806 54.2103 935.806 53.3304C935.806 52.6845 935.984 52.1509 936.339 51.7297C936.695 51.3084 937.168 51.0323 937.758 50.9012C937.252 50.7421 936.84 50.4846 936.522 50.1289C936.213 49.7732 936.059 49.2864 936.059 48.6686C936.059 47.798 936.358 47.1521 936.957 46.7309C937.556 46.3002 938.324 46.0849 939.26 46.0849C940.187 46.0849 940.95 46.3002 941.549 46.7309C942.148 47.1521 942.447 47.798 942.447 48.6686C942.447 49.2864 942.288 49.7732 941.97 50.1289C941.661 50.4846 941.254 50.7421 940.748 50.9012C941.338 51.0323 941.811 51.3084 942.167 51.7297C942.522 52.1509 942.7 52.6845 942.7 53.3304C942.7 54.2103 942.391 54.889 941.773 55.3664C941.156 55.8345 940.318 56.0685 939.26 56.0685ZM939.26 54.8609C939.943 54.8609 940.454 54.7158 940.791 54.4257C941.128 54.1261 941.296 53.7002 941.296 53.1479C941.296 52.6049 941.118 52.179 940.762 51.8701C940.407 51.5612 939.906 51.4067 939.26 51.4067C938.605 51.4067 938.099 51.5612 937.744 51.8701C937.388 52.179 937.21 52.6049 937.21 53.1479C937.21 53.7002 937.378 54.1261 937.715 54.4257C938.052 54.7158 938.567 54.8609 939.26 54.8609ZM939.26 50.3255C939.822 50.3255 940.262 50.1898 940.58 49.9183C940.908 49.6375 941.071 49.2677 941.071 48.809C941.071 48.3316 940.922 47.9618 940.622 47.6997C940.332 47.4376 939.878 47.3066 939.26 47.3066C938.633 47.3066 938.169 47.4376 937.87 47.6997C937.58 47.9618 937.435 48.3316 937.435 48.809C937.435 49.2677 937.594 49.6375 937.912 49.9183C938.24 50.1898 938.689 50.3255 939.26 50.3255ZM947.708 56.0685C947.052 56.0685 946.467 55.9421 945.952 55.6894C945.438 55.4366 945.035 55.0716 944.745 54.5942C944.455 54.1167 944.305 53.5457 944.295 52.8811H945.714C945.742 53.527 945.929 54.0184 946.275 54.3554C946.631 54.6924 947.108 54.8609 947.708 54.8609C948.344 54.8609 948.831 54.6784 949.168 54.3133C949.505 53.9482 949.673 53.4521 949.673 52.8249C949.673 52.1696 949.496 51.6548 949.14 51.2803C948.784 50.9059 948.311 50.7187 947.722 50.7187C947.394 50.7187 947.085 50.7795 946.795 50.9012C946.505 51.0135 946.252 51.182 946.037 51.4067H944.675L945.377 46.2534H950.6V47.5733H946.402L946.037 50.2834C946.317 50.0213 946.64 49.8387 947.006 49.7358C947.371 49.6234 947.731 49.5673 948.087 49.5673C948.667 49.5673 949.182 49.6983 949.631 49.9604C950.09 50.2225 950.446 50.5923 950.698 51.0697C950.951 51.5378 951.078 52.0901 951.078 52.7266C951.078 53.3725 950.947 53.9482 950.684 54.4537C950.422 54.9592 950.039 55.3571 949.533 55.6473C949.028 55.9281 948.419 56.0685 947.708 56.0685Z" fill="#090051"/>
</g>
</g>
<defs>
<clipPath id="bgblur_0_2003_2446_clip_path" transform="translate(-588.856 -35.2154)"><rect x="590.443" y="36.8027" width="123.041" height="28.2221" rx="14.1111"/>
</clipPath><filter id="filter1_d_2003_2446" x="579.654" y="28.8115" width="145.145" height="66.677" filterUnits="userSpaceOnUse" color-interpolation-filters="sRGB">
<feFlood flood-opacity="0" result="BackgroundImageFix"/>
<feColorMatrix in="SourceAlpha" type="matrix" values="0 0 0 0 0 0 0 0 0 0 0 0 0 0 0 0 0 0 127 0" result="hardAlpha"/>
<feOffset dy="11.235"/>
<feGaussianBlur stdDeviation="14.0438"/>
<feComposite in2="hardAlpha" operator="out"/>
<feColorMatrix type="matrix" values="0 0 0 0 0.0352941 0 0 0 0 0 0 0 0 0 0.317647 0 0 0 0.25 0"/>
<feBlend mode="normal" in2="BackgroundImageFix" result="effect1_dropShadow_2003_2446"/>
<feBlend mode="normal" in="SourceGraphic" in2="effect1_dropShadow_2003_2446" result="shape"/>
</filter>
<clipPath id="bgblur_1_2003_2446_clip_path" transform="translate(-735.131 -35.2154)"><rect x="736.718" y="36.8027" width="112.041" height="28.2221" rx="14.1111"/>
</clipPath><filter id="filter3_d_2003_2446" x="725.086" y="28.8115" width="134.588" height="69.2747" filterUnits="userSpaceOnUse" color-interpolation-filters="sRGB">
<feFlood flood-opacity="0" result="BackgroundImageFix"/>
<feColorMatrix in="SourceAlpha" type="matrix" values="0 0 0 0 0 0 0 0 0 0 0 0 0 0 0 0 0 0 127 0" result="hardAlpha"/>
<feOffset dy="11.235"/>
<feGaussianBlur stdDeviation="14.0438"/>
<feComposite in2="hardAlpha" operator="out"/>
<feColorMatrix type="matrix" values="0 0 0 0 0.0352941 0 0 0 0 0 0 0 0 0 0.317647 0 0 0 0.25 0"/>
<feBlend mode="normal" in2="BackgroundImageFix" result="effect1_dropShadow_2003_2446"/>
<feBlend mode="normal" in="SourceGraphic" in2="effect1_dropShadow_2003_2446" result="shape"/>
</filter>
<clipPath id="bgblur_2_2003_2446_clip_path" transform="translate(-870.406 -35.2154)"><rect x="871.993" y="36.8027" width="96.0409" height="28.2221" rx="14.1111"/>
</clipPath><filter id="filter5_d_2003_2446" x="860.361" y="28.8115" width="118.804" height="66.5794" filterUnits="userSpaceOnUse" color-interpolation-filters="sRGB">
<feFlood flood-opacity="0" result="BackgroundImageFix"/>
<feColorMatrix in="SourceAlpha" type="matrix" values="0 0 0 0 0 0 0 0 0 0 0 0 0 0 0 0 0 0 127 0" result="hardAlpha"/>
<feOffset dy="11.235"/>
<feGaussianBlur stdDeviation="14.0438"/>
<feComposite in2="hardAlpha" operator="out"/>
<feColorMatrix type="matrix" values="0 0 0 0 0.0352941 0 0 0 0 0 0 0 0 0 0.317647 0 0 0 0.25 0"/>
<feBlend mode="normal" in2="BackgroundImageFix" result="effect1_dropShadow_2003_2446"/>
<feBlend mode="normal" in="SourceGraphic" in2="effect1_dropShadow_2003_2446" result="shape"/>
</filter>
<linearGradient id="paint0_linear_2003_2446" x1="612.482" y1="101.635" x2="612.482" y2="146.211" gradientUnits="userSpaceOnUse">
<stop stop-color="#4640EB"/>
<stop offset="1" stop-color="#B0ADFE"/>
</linearGradient>
<linearGradient id="paint1_linear_2003_2446" x1="612.288" y1="258" x2="612.288" y2="302.577" gradientUnits="userSpaceOnUse">
<stop stop-color="#4640EB"/>
<stop offset="1" stop-color="#B0ADFE"/>
</linearGradient>
<linearGradient id="paint2_linear_2003_2446" x1="651.964" y1="36.5527" x2="651.964" y2="65.2749" gradientUnits="userSpaceOnUse">
<stop stop-color="white" stop-opacity="0"/>
<stop offset="1" stop-color="#4450E7" stop-opacity="0.1"/>
</linearGradient>
<linearGradient id="paint3_linear_2003_2446" x1="792.739" y1="36.5527" x2="792.739" y2="65.2749" gradientUnits="userSpaceOnUse">
<stop stop-color="white" stop-opacity="0"/>
<stop offset="1" stop-color="#4450E7" stop-opacity="0.1"/>
</linearGradient>
<linearGradient id="paint4_linear_2003_2446" x1="920.014" y1="36.5527" x2="920.014" y2="65.2749" gradientUnits="userSpaceOnUse">
<stop stop-color="white" stop-opacity="0"/>
<stop offset="1" stop-color="#4450E7" stop-opacity="0.1"/>
</linearGradient>
</defs>
</svg>
